<?xml version="1.0" standalone="no"?><!DOCTYPE svg PUBLIC "-//W3C//DTD SVG 1.1//EN" "http://www.w3.org/Graphics/SVG/1.1/DTD/svg11.dtd"><svg t="1665236745599" class="icon" viewBox="0 0 1024 1024" version="1.1" xmlns="http://www.w3.org/2000/svg" p-id="6472" xmlns:xlink="http://www.w3.org/1999/xlink" width="200" height="200"><path d="M430.829268 124.878049c156.097561 0 280.97561 124.878049 280.97561 280.97561s-124.878049 280.97561-280.97561 280.97561-280.97561-124.878049-280.97561-280.97561S280.97561 124.878049 430.829268 124.878049M430.829268 0c-224.780488 0-405.853659 181.073171-405.853659 405.853659s181.073171 405.853659 405.853659 405.853659 405.853659-181.073171 405.853659-405.853659S655.609756 0 430.829268 0L430.829268 0z" p-id="6473" fill="#2e5ee2"></path><path d="M674.341463 661.853659c-12.487805 0-24.97561 6.243902-31.219512 12.487805L624.390244 699.317073c-18.731707 18.731707-18.731707 49.95122 0 68.682927l243.512195 243.512195c6.243902 6.243902 18.731707 12.487805 31.219512 12.487805 12.487805 0 24.97561-6.243902 31.219512-12.487805l18.731707-18.731707c18.731707-18.731707 18.731707-49.95122 0-68.682927l-243.512195-243.512195C699.317073 668.097561 686.829268 661.853659 674.341463 661.853659L674.341463 661.853659z" p-id="6474" fill="#2e5ee2"></path></svg>