<svg id="图层_1" data-name="图层 1" xmlns="http://www.w3.org/2000/svg" xmlns:xlink="http://www.w3.org/1999/xlink" width="271.74" height="1090.26" viewBox="0 0 271.74 1090.26">
  <defs>
    <style>
      .cls-1 {
        fill: #fff;
      }

      .cls-2 {
        fill: url(#未命名的渐变_5);
      }

      .cls-3 {
        fill: url(#未命名的渐变_3);
      }

      .cls-4 {
        fill: url(#未命名的渐变_4);
      }

      .cls-5 {
        fill: none;
      }

      .cls-6 {
        fill: #2319dc;
      }

      .cls-7 {
        fill: #e10601;
      }

      .cls-8 {
        fill: #ea4335;
      }

      .cls-9 {
        fill: #fbbc05;
      }

      .cls-10 {
        fill: #4285f4;
      }

      .cls-11 {
        fill: #34a853;
      }

      .cls-12 {
        opacity: 0.98;
      }

      .cls-13 {
        fill: #0f88eb;
      }

      .cls-14 {
        fill: #fd517e;
      }

      .cls-15 {
        fill: #3faefb;
      }

      .cls-16 {
        fill: url(#未命名的渐变_2);
      }

      .cls-17 {
        fill: #333;
      }

      .cls-18 {
        fill: #01b1ff;
      }

      .cls-19 {
        mask: url(#mask);
      }

      .cls-20 {
        mask: url(#mask-2);
      }

      .cls-21 {
        fill: #231815;
      }

      .cls-21, .cls-22, .cls-23 {
        fill-rule: evenodd;
      }

      .cls-22 {
        fill: #d31c19;
      }

      .cls-23 {
        fill: #e50012;
      }

      .cls-24, .cls-28 {
        fill: #7f7f7f;
      }

      .cls-25 {
        fill: url(#未命名的渐变_9);
      }

      .cls-26 {
        fill: url(#未命名的渐变_8);
      }

      .cls-27 {
        fill: url(#未命名的渐变_7);
      }

      .cls-28, .cls-29 {
        opacity: 0.15;
        isolation: isolate;
      }

      .cls-29 {
        fill: url(#未命名的渐变_6);
      }

      .cls-30 {
        fill: #7d7d7d;
      }

      .cls-31 {
        filter: url(#luminosity-invert-noclip-2);
      }

      .cls-32 {
        filter: url(#luminosity-invert-noclip);
      }
    </style>
    <linearGradient id="未命名的渐变_5" data-name="未命名的渐变 5" x1="7816.38" y1="8502.55" x2="7816.38" y2="8501.55" gradientTransform="translate(-246733.44 -287164.18) scale(31.57 33.78)" gradientUnits="userSpaceOnUse">
      <stop offset="0" stop-color="#55c7ff"/>
      <stop offset="1" stop-color="#0083f5"/>
    </linearGradient>
    <linearGradient id="未命名的渐变_3" data-name="未命名的渐变 3" x1="7737.71" y1="8422.7" x2="7737.71" y2="8421.7" gradientTransform="translate(-188754.89 -219806.36) scale(24.4 26.1)" gradientUnits="userSpaceOnUse">
      <stop offset="0" stop-color="#affa23"/>
      <stop offset="1" stop-color="#63bc0a"/>
    </linearGradient>
    <linearGradient id="未命名的渐变_4" data-name="未命名的渐变 4" x1="6908.47" y1="8426.94" x2="6908.47" y2="8425.94" gradientTransform="translate(-48355.8 -222625.6) scale(7 26.42)" gradientUnits="userSpaceOnUse">
      <stop offset="0" stop-color="#fb0"/>
      <stop offset="1" stop-color="#ff7405"/>
    </linearGradient>
    <linearGradient id="未命名的渐变_2" data-name="未命名的渐变 2" x1="61.33" y1="111.7" x2="9.9" y2="171.21" gradientTransform="matrix(1, 0, 0, -1, 0.2, 1106)" gradientUnits="userSpaceOnUse">
      <stop offset="0" stop-color="#e62828"/>
      <stop offset="0.28" stop-color="#e82c2a"/>
      <stop offset="0.57" stop-color="#ee392f"/>
      <stop offset="0.86" stop-color="#f94d37"/>
      <stop offset="1" stop-color="#ff5a3c"/>
    </linearGradient>
    <filter id="luminosity-invert-noclip" x="104.26" y="565.39" width="47.22" height="72.82" filterUnits="userSpaceOnUse" color-interpolation-filters="sRGB">
      <feColorMatrix values="-1 0 0 0 1 0 -1 0 0 1 0 0 -1 0 1 0 0 0 1 0" result="invert"/>
      <feFlood flood-color="#fff" result="bg"/>
      <feBlend in="invert" in2="bg"/>
    </filter>
    <mask id="mask" x="104.46" y="565.39" width="47.22" height="72.82" maskUnits="userSpaceOnUse">
      <g class="cls-32">
        <g transform="translate(0.2 0)">
          <path class="cls-1" d="M125.08,618.87l1.78,12.23,10.45-7.69S126.86,618.67,125.08,618.87Z"/>
        </g>
      </g>
    </mask>
    <filter id="luminosity-invert-noclip-2" x="187.44" y="565.39" width="47.22" height="72.82" filterUnits="userSpaceOnUse" color-interpolation-filters="sRGB">
      <feColorMatrix values="-1 0 0 0 1 0 -1 0 0 1 0 0 -1 0 1 0 0 0 1 0" result="invert"/>
      <feFlood flood-color="#fff" result="bg"/>
      <feBlend in="invert" in2="bg"/>
    </filter>
    <mask id="mask-2" x="187.64" y="565.39" width="47.22" height="72.82" maskUnits="userSpaceOnUse">
      <g class="cls-31">
        <g transform="translate(0.2 0)">
          <path class="cls-1" d="M208.26,618.87,210,631.1l10.46-7.69S210,618.67,208.26,618.87Z"/>
        </g>
      </g>
    </mask>
    <linearGradient id="未命名的渐变_9" data-name="未命名的渐变 9" x1="-386.66" y1="123.01" x2="-377.41" y2="133.31" gradientTransform="translate(1242.25 -168.08) scale(3.13)" gradientUnits="userSpaceOnUse">
      <stop offset="0" stop-color="#37bdff"/>
      <stop offset="0.25" stop-color="#26c6f4"/>
      <stop offset="0.5" stop-color="#15d0e9"/>
      <stop offset="0.75" stop-color="#3bd6df"/>
      <stop offset="1" stop-color="#62dcd4"/>
    </linearGradient>
    <linearGradient id="未命名的渐变_8" data-name="未命名的渐变 8" x1="-393.31" y1="137.09" x2="-393.6" y2="114.22" gradientTransform="translate(1242.25 -168.08) scale(3.13)" gradientUnits="userSpaceOnUse">
      <stop offset="0" stop-color="#1b48ef"/>
      <stop offset="0.5" stop-color="#2080f1"/>
      <stop offset="1" stop-color="#26b8f4"/>
    </linearGradient>
    <linearGradient id="未命名的渐变_7" data-name="未命名的渐变 7" x1="-387.63" y1="136.14" x2="-365.25" y2="136.14" gradientTransform="translate(1242.25 -168.08) scale(3.13)" gradientUnits="userSpaceOnUse">
      <stop offset="0" stop-color="#39d2ff"/>
      <stop offset="0.5" stop-color="#248ffa"/>
      <stop offset="1" stop-color="#104cf5"/>
    </linearGradient>
    <linearGradient id="未命名的渐变_6" data-name="未命名的渐变 6" x1="-387.63" y1="136.15" x2="-365.25" y2="136.15" gradientTransform="translate(1242.25 -168.08) scale(3.13)" gradientUnits="userSpaceOnUse">
      <stop offset="0" stop-color="#fff"/>
      <stop offset="1"/>
    </linearGradient>
    <symbol id="graph_blue" data-name="graph blue" viewBox="0 0 31.57 33.78">
      <path class="cls-2" d="M26.32,23.68a67.74,67.74,0,0,1-18.6,9.7c-2.5.8-4.4.4-5.6-1.3C.62,30,.12,21.18,0,17a77.34,77.34,0,0,1,.7-13.1C1.52-.22,5-.52,8.32.48c8.1,2.3,16.4,8.9,21,13.3C33.22,17.38,31.92,19.68,26.32,23.68Z"/>
    </symbol>
    <symbol id="graph_orange" data-name="graph orange" viewBox="0 0 7 26.42">
      <path class="cls-4" d="M5.9,15.25c0,6,.6,9.2,1.1,10.9-2.1.5-4,.4-5-1-1.2-1.7-2-8.3-2-11.6A77.42,77.42,0,0,1,.9,3.35C1.7,0,3.4-.35,6.3.25A121.21,121.21,0,0,0,5.9,15.25Z"/>
    </symbol>
    <symbol id="graph_green" data-name="graph green" viewBox="0 0 24.4 26.1">
      <path class="cls-3" d="M19.9,17.8C8.7,24.5,1.4,26.1,1.5,26.1A58.09,58.09,0,0,1,0,12.9,87.58,87.58,0,0,1,.8,0S11.1,1.1,22.6,10.1C26.1,12.8,24.1,15.2,19.9,17.8Z"/>
    </symbol>
    <symbol id="graph_white" data-name="graph white" viewBox="0 0 12.14 12.19">
      <path class="cls-1" d="M.35,11.5S0,11,0,6.12.35.69.35.69c.12-.6.37-.79,1-.64,0,0,1.07.17,5.37,2.37s5,3,5,3c.46.47.58.78,0,1.28a25.77,25.77,0,0,1-5,3.1,25.22,25.22,0,0,1-5.37,2.31C.83,12.29.49,12.12.35,11.5Z"/>
    </symbol>
  </defs>
  <title>search_logo</title>
  <path class="cls-5" d="M.49,0H271.54V91.92H.49Z" transform="translate(0.2 0)"/>
  <path class="cls-6" d="M106.88,49.13c9.16-2,7.91-12.93,7.64-15.32-.45-3.69-4.79-10.14-10.68-9.63-7.42.66-8.5,11.38-8.5,11.38-1,5,2.4,15.54,11.54,13.57m17-18.37c5.06,0,9.14-5.83,9.14-13s-4.08-13-9.14-13-9.16,5.82-9.16,13,4.1,13,9.16,13m21.8.86c6.77.88,11.1-6.34,12-11.81S154.18,8,149.39,6.9s-10.79,6.59-11.33,11.6c-.66,6.13.87,12.25,7.63,13.12m26.8,9.19c0-2.62-2.16-10.51-10.23-10.51s-9.15,7.45-9.15,12.71c0,5,.42,12,10.45,11.8s8.93-11.37,8.93-14m-10.23,23s-10.46-8.09-16.57-16.84c-8.29-12.91-20.06-7.65-24-1.1s-10,10.72-10.89,11.82-12.64,7.43-10,19,11.78,11.37,11.78,11.37A51.62,51.62,0,0,0,127.16,87a30.67,30.67,0,0,1,14.6.43s18.32,6.14,23.33-5.68-2.83-17.94-2.83-17.94" transform="translate(0.2 0)"/>
  <path class="cls-1" d="M125.52,52.5v7.78h-6.35A10.47,10.47,0,0,0,110.61,68a13.54,13.54,0,0,0,.94,8.22A10.41,10.41,0,0,0,119,81.37h11.91V52.58Zm-.1,24.14h-4.8a5,5,0,0,1-4.35-4,7.66,7.66,0,0,1,.34-4.45,5.6,5.6,0,0,1,3.67-3.25h5.14ZM133.82,61V76.14s.25,3.77,5.57,5.14h13.7V61h-5.91V76.22h-5.64s-1.81-.26-2.15-1.71V60.89Z" transform="translate(0.2 0)"/>
  <path class="cls-7" d="M218.37,51V44.64H176.28l-.06,6.48h18.1L192.62,55H177.23V87.07h36.56c3.82,0,3.48-3.86,3.48-3.86V55H201.86l1.35-4ZM210.2,80.22s-.45,1.07-1.07,1.07H184.87V73.81H210.2Zm0-12.59H184.87v-7h25.28Zm56.31-22.82H250V41.58H242.2v3.07H223.26V87h6.82V50.11h36.38ZM262,53.58V51.13h-6.66v2.45h-13.7V51.21h-6.3v2.37h-4.26l.08,4.8h4.18v9h23C261.58,67.38,262,64,262,64V58.37h4.87v-4.8H262Zm-6.66,8.07s-.59,1.09-1.35,1.09H241.58V58.28h13.77v3.37ZM232,74l10.6,6.15c-.84.92-4.46,2.1-4.46,2.1h-7.07v4.72h9.6c2.87-.58,8.17-3.28,8.17-3.28,2.19,2,6.41,2.86,6.41,2.86h10.94V81.78H258a12.42,12.42,0,0,1-4.22-1.6L266.21,73V69.14H232V74Zm22.06-.08L248,77.07l-5.56-3.2ZM82.63,51.55h9.18V43.46H82.63Zm0,35.28h9.18V55.08H82.63ZM67.69,55.11l-19.6,0v6.67H65.28s4.09,1,4.09,3.61v2.35H53.82s-6.12.56-8.09,7.87a13.22,13.22,0,0,0,.35,5.72A9.63,9.63,0,0,0,53.42,87H78.19V64.2S77,56.4,67.69,55.11m1.68,25.55H56.85a4.09,4.09,0,0,1-2.36-2.08,2.91,2.91,0,0,1-.05-2.3,4.78,4.78,0,0,1,2.69-2.41H69.37Zm-25.66-5c.27-7.73-6.66-10.4-6.66-10.4,5.87-3.07,5.12-10.81,5.12-10.81-.63-11.84-15.1-11.29-15.1-11.29H4.71V87.33H30c14.83-.06,13.76-11.64,13.76-11.64M29.45,79.12v0H14.32V69.62H29.37l.51.1a5.59,5.59,0,0,1,3.9,3.1,5.66,5.66,0,0,1-.7,4.22,5.06,5.06,0,0,1-3.64,2.08m3.21-20.46a5.08,5.08,0,0,1-3.71,2.27H14.32V51.8H28.88s3.16-.15,4.21,2.36a7.1,7.1,0,0,1-.44,4.5" transform="translate(0.2 0)"/>
  <path class="cls-8" d="M116.55,140.14A22.25,22.25,0,1,1,94.3,118,21.91,21.91,0,0,1,116.55,140.14Zm-9.74,0c0-8-5.79-13.44-12.51-13.44s-12.51,5.46-12.51,13.44,5.79,13.44,12.51,13.44S106.81,148,106.81,140.14Z" transform="translate(0.2 0)"/>
  <path class="cls-9" d="M164.55,140.14A22.25,22.25,0,1,1,142.3,118,21.91,21.91,0,0,1,164.55,140.14Zm-9.74,0c0-8-5.79-13.44-12.51-13.44s-12.51,5.46-12.51,13.44,5.79,13.44,12.51,13.44S154.81,148,154.81,140.14Z" transform="translate(0.2 0)"/>
  <path class="cls-10" d="M210.55,119.3v39.82c0,16.38-9.66,23.07-21.08,23.07a21.12,21.12,0,0,1-19.66-13.07l8.48-3.53c1.51,3.61,5.21,7.87,11.17,7.87,7.31,0,11.84-4.51,11.84-13v-3.19H201a15.1,15.1,0,0,1-11.68,5c-11.09,0-21.25-9.66-21.25-22.09S178.19,118,189.28,118a15.37,15.37,0,0,1,11.68,5h.34v-3.61h9.25ZM202,140.22c0-7.81-5.21-13.52-11.84-13.52s-12.35,5.71-12.35,13.52,5.63,13.36,12.35,13.36S202,148,202,140.22Z" transform="translate(0.2 0)"/>
  <path class="cls-11" d="M225.8,96v65h-9.5V96Z" transform="translate(0.2 0)"/>
  <path class="cls-8" d="M262.82,147.44l7.56,5a22.08,22.08,0,0,1-18.48,9.83c-12.6,0-22-9.74-22-22.18,0-13.19,9.49-22.18,20.92-22.18s17.14,9.16,19,14.11l1,2.52-29.65,12.28c2.27,4.45,5.8,6.72,10.75,6.72s8.4-2.44,10.92-6.14Zm-23.27-8,19.82-8.23c-1.09-2.77-4.37-4.7-8.23-4.7A12.17,12.17,0,0,0,239.55,139.46Z" transform="translate(0.2 0)"/>
  <path class="cls-10" d="M36.09,134.37V125H67.8a31.18,31.18,0,0,1,.47,5.68c0,7.06-1.93,15.79-8.15,22-6,6.3-13.78,9.66-24,9.66-19,0-34.94-15.46-34.94-34.44s16-34.44,34.94-34.44a32.82,32.82,0,0,1,23.6,9.49l-6.64,6.64a24,24,0,0,0-17-6.72,25,25,0,0,0,0,50.06c9,0,14.11-3.61,17.39-6.89,2.66-2.66,4.41-6.46,5.1-11.65Z" transform="translate(0.2 0)"/>
  <g class="cls-12">
    <path class="cls-8" d="M74,504.57A14.32,14.32,0,1,1,59.73,490.3,14.09,14.09,0,0,1,74,504.57Zm-6.27,0c0-5.14-3.72-8.65-8-8.65s-8,3.51-8,8.65,3.72,8.65,8,8.65S67.77,509.65,67.77,504.57Z" transform="translate(0.2 0)"/>
    <path class="cls-9" d="M104.92,504.57A14.32,14.32,0,1,1,90.61,490.3,14.09,14.09,0,0,1,104.92,504.57Zm-6.26,0c0-5.14-3.73-8.65-8-8.65s-8,3.51-8,8.65,3.72,8.65,8,8.65S98.66,509.65,98.66,504.57Z" transform="translate(0.2 0)"/>
    <path class="cls-10" d="M134.52,491.16v25.62c0,10.54-6.21,14.84-13.56,14.84a13.58,13.58,0,0,1-12.65-8.41l5.45-2.27A7.9,7.9,0,0,0,121,526c4.7,0,7.62-2.9,7.62-8.37v-2h-.22a9.7,9.7,0,0,1-7.51,3.24c-7.14,0-13.68-6.21-13.68-14.21s6.54-14.32,13.68-14.32a9.88,9.88,0,0,1,7.51,3.19h.22v-2.32h6ZM129,504.62c0-5-3.35-8.7-7.62-8.7s-7.94,3.68-7.94,8.7,3.62,8.6,7.94,8.6S129,509.59,129,504.62Z" transform="translate(0.2 0)"/>
    <path class="cls-11" d="M144.33,476.14V518h-6.11V476.14Z" transform="translate(0.2 0)"/>
    <path class="cls-8" d="M168.15,509.27l4.86,3.24a14.2,14.2,0,0,1-11.89,6.32A14,14,0,0,1,147,504.56c0-8.48,6.11-14.27,13.46-14.27s11,5.9,12.22,9.08l.64,1.62-19.07,7.9a7.25,7.25,0,0,0,6.91,4.33,8.14,8.14,0,0,0,7-4Zm-15-5.14,12.75-5.29c-.7-1.79-2.81-3-5.29-3A7.83,7.83,0,0,0,153.18,504.13Z" transform="translate(0.2 0)"/>
    <path class="cls-10" d="M22.27,500.86V494.8H42.68a21.07,21.07,0,0,1,.3,3.66c0,4.54-1.24,10.16-5.25,14.16s-8.86,6.21-15.45,6.21A22.47,22.47,0,0,1-.2,496.67c0-12.21,10.27-22.15,22.48-22.15a21.1,21.1,0,0,1,15.18,6.1l-4.27,4.27a15.42,15.42,0,0,0-10.92-4.32,16.11,16.11,0,0,0,0,32.21,14.82,14.82,0,0,0,11.19-4.43,12.57,12.57,0,0,0,3.28-7.5Z" transform="translate(0.2 0)"/>
  </g>
  <path class="cls-13" d="M96.19,347.87h6.25l2.06,7,11.2-7h13.21v-58H96.19Zm6.65-51.73h19.42v45.43h-7.45l-7.44,4.67L106,341.58h-3.18V296.14ZM90.67,316.39h-14c.46-7.23.59-13.76.59-19.59H90.94s.53-6-2.29-5.95H65.05q1.4-5.25,3.5-10.85s-6.42,0-8.61,5.75c-.91,2.38-3.52,11.51-8.19,20.84a11.33,11.33,0,0,0,9.83-5.92c.56-1.57.67-1.78,1.37-3.88h7.7c0,2.8-.32,17.84-.45,19.59H56.26c-3.13,0-4.15,6.3-4.15,6.3H69.6c-1.17,13.3-7.47,24.51-18.9,33.37a15.22,15.22,0,0,0,13.61-2.64s6.13-5.58,9.49-18.47l14.39,17.32s2.11-7.17-.33-10.67c-2-2.38-7.48-8.82-9.81-11.15l-3.9,3.1a47.49,47.49,0,0,0,2.1-10.85H92.69s0-6.3-2-6.3Zm109.9-.43c5.56-6.84,12-15.62,12-15.62s-5-3.95-7.31-1.08c-1.6,2.17-9.82,12.85-9.82,12.85l5.13,3.85Zm-40-15.76c-2.4-2.2-6.91.57-6.91.57s10.54,14.69,11,15.33l5.19-3.66s-6.85-10-9.24-12.24Zm60.88,19c-5.27,0-34.92.25-34.95.25V292.55q1.92,0,6.09-.32,16.35-1,23.41-1.28s3.26-7.26-.16-8.92c-.81-.32-6.18,1.22-6.18,1.22s-44.07,4.39-62,4.81a6.66,6.66,0,0,0,4.21,5.22c3.55.92,6.05.45,13.11.23,6.63-.42,11.66-.65,15.08-.65v26.63H144.43s.76,5.95,6.81,6.09H180V344.5c0,3.72-3,5.86-6.53,5.63-3.76,0-7-.31-11.12-.48a12.22,12.22,0,0,0,5.15,5.82,13.94,13.94,0,0,0,6.94,1.76c7.89,0,12.18-4.61,12-12.09V325.58h32.64c2.59,0,2.32-6.34,2.32-6.34Z" transform="translate(0.2 0)"/>
  <path d="M39.21,383.83a31.49,31.49,0,0,0-7.63,62,4.25,4.25,0,0,1-.24-1.5V439H27.41a5.38,5.38,0,0,1-5-2.68c-1-1.89-1.19-4.8-3.78-6.61-.79-.63-.16-1.26.7-1.19a8.29,8.29,0,0,1,4.25,3.23c1.26,1.65,1.82,2.05,4.18,2.05a31.66,31.66,0,0,0,4.41-.32,9.73,9.73,0,0,1,4.17-5.11c-10.55-1.26-15.59-6.46-15.59-13.55a13,13,0,0,1,3.54-8.5c-.7-2.44-1.65-7.48.32-9.45a11.16,11.16,0,0,1,8.27,3.86,24.17,24.17,0,0,1,7.63-1.26,23.81,23.81,0,0,1,7.64,1.26,11.16,11.16,0,0,1,8.26-3.86c1.89,1.89,1,7,.24,9.45a12.76,12.76,0,0,1,3.46,8.5c0,7.09-5,12.29-15.42,13.39,2.91,1.49,5,5.74,5,8.89v7.17c0,.24-.08.48-.08.71a31.46,31.46,0,0,0-10.4-61.17Z" transform="translate(0.2 0)"/>
  <path d="M120.63,412.68H105.29a.71.71,0,0,0-.72.71v7.5a.72.72,0,0,0,.72.72h6v9.32a18.41,18.41,0,0,1-5.06.45c-4.38,0-10.5-1.6-10.5-15.06s6.37-15.23,12.36-15.23a24.25,24.25,0,0,1,8.83,1.35.73.73,0,0,0,.86-.71l1.71-7.24a.66.66,0,0,0-.27-.56c-.58-.41-4.1-2.38-13-2.38-10.24,0-20.74,4.35-20.74,25.3s12,24.06,22.16,24.06a24.93,24.93,0,0,0,13.48-3.59c.21-.11.23-.41.23-.54V413.39a.71.71,0,0,0-.71-.71m79-18.62a.7.7,0,0,0-.7-.72h-8.64a.72.72,0,0,0-.72.72h0v16.69H176.15V394.06a.71.71,0,0,0-.71-.72H166.8a.71.71,0,0,0-.71.72v45.19a.71.71,0,0,0,.71.72h8.64a.71.71,0,0,0,.71-.72V419.92h13.46l0,19.33a.71.71,0,0,0,.71.72H199a.71.71,0,0,0,.71-.72V394.06M136.92,400a5.57,5.57,0,1,0-5.57,5.62,5.6,5.6,0,0,0,5.57-5.62m-.61,29.73V408.86a.72.72,0,0,0-.72-.72H127a.82.82,0,0,0-.75.8v29.89c0,.87.55,1.14,1.26,1.14h7.76c.85,0,1.06-.42,1.06-1.16v-9.09M232.5,408.2h-8.57a.73.73,0,0,0-.72.73v22.15a9.62,9.62,0,0,1-5.26,1.6c-3.09,0-3.91-1.4-3.91-4.43V408.93a.73.73,0,0,0-.72-.73h-8.7a.72.72,0,0,0-.71.73v20.78c0,9,5,11.19,11.9,11.19A20.11,20.11,0,0,0,226,437.78a18,18,0,0,0,.32,1.84.75.75,0,0,0,.63.39l5.53,0a.71.71,0,0,0,.71-.72V408.93a.72.72,0,0,0-.71-.73m20,24.45a10.29,10.29,0,0,1-5-1.44V416.9a11.44,11.44,0,0,1,4.43-1.44c3.09-.27,6.06.66,6.06,8C258,431.24,256.7,432.78,252.54,432.65Zm3.38-25.46a16.12,16.12,0,0,0-8.18,2.17v-15.3a.71.71,0,0,0-.71-.72h-8.66a.72.72,0,0,0-.72.72h0v45.19a.72.72,0,0,0,.72.72h6a.74.74,0,0,0,.63-.38,15.31,15.31,0,0,0,.36-2.09s3.54,3.36,10.25,3.36c7.87,0,12.38-4,12.38-17.92s-7.21-15.75-12.08-15.75m-94.79.94h-6.48v-8.56c0-.32-.17-.48-.54-.48h-8.83c-.34,0-.53.15-.53.48v8.84s-4.42,1.07-4.72,1.16a.72.72,0,0,0-.52.69v5.55a.72.72,0,0,0,.72.72h4.52V429.9c0,9.94,7,10.91,11.67,10.91a19.45,19.45,0,0,0,5.14-.85.66.66,0,0,0,.41-.64V433.2a.72.72,0,0,0-.71-.72c-.38,0-1.35.16-2.34.16-3.18,0-4.26-1.48-4.26-3.4V416.53h6.48a.71.71,0,0,0,.71-.72v-7a.71.71,0,0,0-.71-.72h0" transform="translate(0.2 0)"/>
  <path class="cls-14" d="M118.36,659.71a5.84,5.84,0,0,0-6.23,5.74l.12,26.35c0,.21-.12,24.86,25.15,24.82S162.67,692,162.67,692l.12-26.52s0-5.73-6.31-5.73a5.71,5.71,0,0,0-6.24,5.65L150.16,692c.17.16.21,12.34-12.76,12.26-12.93.08-12.89-12.55-12.89-12.55l.13-26.19a5.92,5.92,0,0,0-6.28-5.78Zm-35,.08h-.16a25.75,25.75,0,0,0-6.65,1,24.79,24.79,0,0,0-11.31,6.61c-5.44,5-7.69,12.51-7.52,19.66-.21,5.9.45,12.18,3.78,17.29,4.11,7.11,12.05,11.56,20.24,12.31.5,0,1,0,1.46,0h.29c.5,0,1,0,1.49,0,8.19-.75,16.13-5.2,20.25-12.31,3.32-5.11,3.94-11.39,3.78-17.29.16-7.15-2.12-14.67-7.53-19.66a24.76,24.76,0,0,0-11.3-6.61,25.67,25.67,0,0,0-6.69-1H83.4Zm-73.23,0A6.75,6.75,0,0,0,4,664a6.91,6.91,0,0,0,1.95,7.24c6,6.15,12.31,12.13,18.25,18.37l.08,20.53s-.08,6.44,6.49,6.57c6.44-.08,6.53-6.53,6.53-6.53l.12-21.11,18.46-18.38c2-1.7,2.11-4.65,1.37-7-1.42-3.86-7-5.23-10-2.32-.08.12-16.34,16.25-16.34,16.25L13.53,661a5.45,5.45,0,0,0-3.36-1.16ZM83.4,672.43a11,11,0,0,1,3.45.54,13.11,13.11,0,0,1,7.94,6.69c1.83,3.79,1.08,12,1.12,12.1.13,4.91-3.32,9.31-7.77,11.27a12.38,12.38,0,0,1-4.74.91,12.65,12.65,0,0,1-4.78-.91c-4.4-2-7.85-6.36-7.77-11.27.08-.08-.66-8.31,1.16-12.1a12.93,12.93,0,0,1,7.9-6.69,11.44,11.44,0,0,1,3.49-.54Z" transform="translate(0.2 0)"/>
  <path class="cls-15" d="M207.23,659.8a5.09,5.09,0,0,0-3.66,1.62c-7.61,7.1-14.84,14.63-22.28,21.86a9.29,9.29,0,0,0-2.12,3.24l0-20.61s.08-6.12-6.65-6.07a6.12,6.12,0,0,0-6.65,6.11l0,45.18s.08,5.57,6.61,5.49c6.36,0,6.57-5.45,6.57-5.45s.29-20.78.16-20.78a18,18,0,0,0,3.78,4.32c5.66,5.57,11.23,11.22,16.88,16.75,1.62,1.58,3.08,3.41,5.07,4.53,4,2.37,9.81-1.7,9-6.27,0-2.87-2.49-4.66-4.32-6.49-4.82-4.82-9.77-9.6-14.59-14.51v-1.16q8.24-8.1,16.42-16.25a6.17,6.17,0,0,0,2.53-5.07c.38-3.7-3.28-6.53-6.73-6.44Zm15.29.12a5.83,5.83,0,0,0-6.23,5.73l.12,26.28c0,.2-.12,24.77,25.19,24.77,25.15-.08,25.23-24.57,25.23-24.57l.17-26.47s0-5.7-6.36-5.7a5.72,5.72,0,0,0-6.23,5.66l0,26.47c.13.17.17,12.31-12.8,12.22-12.92.09-12.84-12.47-12.84-12.47l.08-26.18a5.85,5.85,0,0,0-6.27-5.74Z" transform="translate(0.2 0)"/>
  <g>
    <g>
      <circle class="cls-16" cx="37.53" cy="966.53" r="36.6"/>
      <g>
        <path class="cls-1" d="M20.65,960.45,25,949.13c.95-1.9.57-3.49-1.08-4.6a6.09,6.09,0,0,0-4.57-1,1.39,1.39,0,0,0-.89,1.57c.38,4.3-.59,8.68-2.11,13.27-2.59,7.89-8.86,15.68-7,15.92.76.11,2.33-.65,3.79-2.35,2-2.3,5.16-6.81,5.16-6.81a55.81,55.81,0,0,1,1.6,10.16c.19,3.46.4,7.19.59,11.08a7.2,7.2,0,0,0,.68,3.22,11.93,11.93,0,0,0,2.81,3.38c.62.38,2.54.51,2.4-2.05-.05-1-2.86-25.49-3.75-28.14A6.42,6.42,0,0,0,20.65,960.45Z" transform="translate(0.2 0)"/>
        <path class="cls-1" d="M64.41,978.26a6.58,6.58,0,0,0-2.13-.59,5.35,5.35,0,0,0-2.33.27c-1.21.38-26.19,6.54-26.19,6.54l-2-13.89a3.47,3.47,0,0,0-2.16-2.92,4.54,4.54,0,0,0-3.43.08,1.36,1.36,0,0,0-.79,1.46,9.82,9.82,0,0,0,1.38,2,5.09,5.09,0,0,1,1.06,2.19s1.7,11.3.83,13.27a2.21,2.21,0,0,0,1.09,2.54,4.92,4.92,0,0,0,1.78.71c.76.16,4-1.44,11.84-3.73s19.46-3.41,21-3.54a2.05,2.05,0,0,0,2.11-2A3.15,3.15,0,0,0,64.41,978.26Z" transform="translate(0.2 0)"/>
        <path class="cls-1" d="M34,953.53c.87-.16,2-.4,3.33-.73-.14,2.41-.33,4.62-.41,5.46-.84.35-1.38.6-1.38.6a4.72,4.72,0,0,0-2.54-.33,1.67,1.67,0,0,0-1.19.62,1.71,1.71,0,0,0-.1,1.62,9.61,9.61,0,0,1,1.19,2.3c.37,1.19,2.67,15.46,2.89,16.44S37.25,982,38,982s1.48-.59,1.83-2L50,977.26c.05,0,2,1.73,3,1.52a2.44,2.44,0,0,0,1.78-2.3,63,63,0,0,0-1.13-8.33,44.62,44.62,0,0,1-1.05-7.54c.05-1.11.83-4.08.08-5.05s-3.25-1.81-5-1.52a55.84,55.84,0,0,0-6.06,2.27c0-1.59.11-3.13.22-4.59,5.27-1.35,10.89-3,11.57-3.7a2.37,2.37,0,0,0-.81-3.57,7.55,7.55,0,0,0-4.84.43c-1.54.6-2.68,1.38-5.51,2.46.19-1.54.4-2.73.56-3.43.44-1.84,1-2.89-1.24-4.19-3.22-1.76-5.7-1.06-5.92.22-.27,1.51,1.38,2.48,1.76,6.75,0,.65.08,1.38.08,2.19C31.71,950.48,27,951,27,952.58,26.92,953.4,29.25,954.45,34,953.53Zm11.25,5.14c.94.05,1.24.65,1.43,1.51s2,11,2.27,14a2.78,2.78,0,0,0-1.65.08c-1,.24-6.7,2.35-7.89,2.78-.16-1-.35-2.19-.57-3.43,1.35-.43,6-1.84,6.79-2.11.62-.24,1.05-.59,1.08-.94a2.27,2.27,0,0,0-2.11-1.71c-1.35-.19-4.62,1-6.3,1.6-.22-1.19-.4-2.35-.62-3.44,1.13-.29,5.84-1.7,6.89-2,.6-.19,1.35-.76,1-1.44a2.2,2.2,0,0,0-1.84-1.13,9.44,9.44,0,0,0-3.27.51c-.92.35-2.51,1-3.32,1.25-.3-1.68-.52-2.79-.52-2.79S44.14,958.61,45.28,958.67Z" transform="translate(0.2 0)"/>
      </g>
    </g>
    <g>
      <g>
        <path class="cls-17" d="M98.07,991.24a4.14,4.14,0,0,0,.21,1.08c-.19.16-.48.38-.86.67-.92.73-1.54,1.27-1.9,1.6l0,0a1.83,1.83,0,0,0-.62.57l-.76-.68a2,2,0,0,0,.41-1.27v-4.7H92.66v-1h3v5.67l1.73-1.37C97.61,991.62,97.88,991.4,98.07,991.24Zm-3.33-7.9c.68.68,1.46,1.49,2.3,2.41l-.92.81c-.65-.81-1.38-1.65-2.19-2.51Zm6.14-.13H102c0,1.13,0,2.3-.06,3.43q.81,6.4,4.54,8.6c-.29.38-.59.75-.86,1.08a10.32,10.32,0,0,1-4-6.71,10.58,10.58,0,0,1-4.24,6.95c-.22-.27-.52-.57-.87-.92,2.89-2,4.35-5,4.35-9C100.85,985.88,100.88,984.75,100.88,983.21Z" transform="translate(0.2 0)"/>
        <path class="cls-17" d="M114.12,993.07h2V986h4.24v-1h-6v-.87h6V983h1v1.08h6v.87h-6v1h4.25v7.1h2V994h-13.6v-.92Zm4.92,1,.62.86c-.27.08-.65.22-1.13.41a31.82,31.82,0,0,1-3.68,1.38c-.22-.46-.4-.79-.51-1A35.69,35.69,0,0,0,119,994.05Zm-1.89-7.22v1h7.46v-1Zm0,1.78v.92h7.46v-.92Zm0,1.76v.92h7.46v-.92Zm0,1.73v1h7.46v-1Zm4.94,2.87.52-.87c2.49.73,4.11,1.25,4.86,1.54l-.51,1A44,44,0,0,0,122.09,995Z" transform="translate(0.2 0)"/>
        <path class="cls-17" d="M138.39,983.67l1.14.35a17.4,17.4,0,0,1-.87,2h3.22v-3H143v3h5.29v1H143v3.22H148v1.08H143v3.49h6.08v1h-13.7v-1h6.49v-3.49H137v-1.08h4.92V987H138.1a19,19,0,0,1-1.95,2.92,8.73,8.73,0,0,0-.86-.86A15.1,15.1,0,0,0,138.39,983.67Z" transform="translate(0.2 0)"/>
        <path class="cls-17" d="M157.21,986.83a28.61,28.61,0,0,1,2.46,1.68c-.09,0,0,0,.16.1l-.68.92a5.48,5.48,0,0,1-.51-.4c-.68-.49-1.38-1-2.06-1.43ZM158.8,991a7.62,7.62,0,0,1,1.14.51l-1.79,4.92-1.13-.51A40,40,0,0,0,158.8,991Zm-.92-7.81c.11.08.27.19.46.35.92.68,1.6,1.22,2,1.54l-.76.87c-.43-.36-1-.81-1.73-1.38-.29-.27-.54-.46-.67-.57Zm3.49,7.57h3.43v-2.35h-4.32v-1h4.35v-2.35c-1.22,0-2.46.11-3.73.16,0-.22-.11-.57-.22-1,2.25,0,5.19-.21,8.84-.51l.16,1.08a13.7,13.7,0,0,0-1.48.11c-1.09,0-1.9.08-2.46.11v2.4h4.54v1h-4.54v2.35h3.46v5.84h-1.09v-.81h-5.83v.81H161.4v-5.81Zm1.11,1v3.16h5.83v-3.16Z" transform="translate(0.2 0)"/>
        <path class="cls-17" d="M194.59,994.1l-.87.87c-.21-.19-.57-.49-1-.92-.22-.19-.41-.35-.52-.46a9.33,9.33,0,0,1-2.76,2.81c-.18-.27-.4-.57-.62-.92a10.31,10.31,0,0,0,2.65-2.57c-.75-.65-1.46-1.24-2.11-1.78a33,33,0,0,0,.92-4.14h-1.48v-1h1.67a11.94,11.94,0,0,0,.22-1.49c.11-.65.19-1.14.21-1.43l1.09.1c0,.28-.11.68-.22,1.28s-.16,1.24-.22,1.54h2.65v.91a15.37,15.37,0,0,1-1.38,5.79c.35.27.87.67,1.54,1.22A1,1,0,0,0,194.59,994.1ZM193.05,987h-1.73c-.27,1.49-.57,2.79-.87,3.84a17,17,0,0,1,1.43,1.14A13.2,13.2,0,0,0,193.05,987Zm4.86.14c.49-.43,1.25-1,2.25-1.84-.63.49-.52.41.29-.3h-5.84v-1H202v1.08c-.43.38-1.16,1-2.24,1.89-.35.27-.6.49-.76.62v1.65h3.49v1H199v4.38c0,1.13-.57,1.73-1.84,1.73h-.62a10.51,10.51,0,0,1-1.13,0,5.2,5.2,0,0,0-.11-.87,1.32,1.32,0,0,1-.06-.3c.35,0,1,.06,1.84.06.57,0,.87-.22.87-.76v-4.24h-3.84v-1H198v-2.13Z" transform="translate(0.2 0)"/>
        <path class="cls-17" d="M215.94,994.1l-.86.87c-.22-.19-.57-.49-1-.92-.22-.19-.41-.35-.52-.46a9.4,9.4,0,0,1-2.75,2.81c-.19-.27-.41-.57-.62-.92a10.47,10.47,0,0,0,2.65-2.57l-2.11-1.78a34.89,34.89,0,0,0,.92-4.14h-1.49v-1h1.67a9.06,9.06,0,0,0,.22-1.49c.11-.65.19-1.14.22-1.43l1.08.1c0,.28-.11.68-.22,1.28s-.16,1.24-.21,1.54h2.64v.91a15.59,15.59,0,0,1-1.37,5.79c.35.27.86.67,1.54,1.22A.48.48,0,0,0,215.94,994.1ZM214.4,987h-1.73c-.27,1.49-.57,2.79-.87,3.84a17.14,17.14,0,0,1,1.44,1.14A13.22,13.22,0,0,0,214.4,987Zm4.87.14c.48-.43,1.24-1,2.24-1.84-.62.49-.52.41.3-.3H216v-1h7.4v1.08c-.43.38-1.16,1-2.24,1.89-.35.27-.59.49-.76.62v1.65h3.49v1h-3.49v4.38c0,1.13-.56,1.73-1.83,1.73h-.63a10.53,10.53,0,0,1-1.13,0,5.2,5.2,0,0,0-.11-.87,1.25,1.25,0,0,1,0-.3c.35,0,.94.06,1.83.06.57,0,.87-.22.87-.76v-4.24h-3.84v-1h3.84v-2.13Z" transform="translate(0.2 0)"/>
        <path class="cls-17" d="M231.37,991.94a15.89,15.89,0,0,0,3.9-4.87l1,.52a13.41,13.41,0,0,1-1.13,1.78.36.36,0,0,1-.11.16v7.06H234v-5.68c-.65.73-1.33,1.41-2,2.06-.11-.22-.27-.52-.46-.87C231.4,992,231.37,992,231.37,991.94Zm8.82-8.89h1.08v1.73h3.84v1h-3.82v1.38h-1.08v-1.38h-3.78v1.13h-1.08v-1.13h-3.79v-1h3.79v-1.73h1.08v1.73h3.78v-1.73ZM235.56,993a30.78,30.78,0,0,0,3.27-1.54v-4h1.09v3.32a20.23,20.23,0,0,0,3.67-2.92l.87.87a31.06,31.06,0,0,1-4.54,3.43v2.19c0,.65.32.94,1.08.92h1.48c.81,0,1.25-.22,1.33-.76a11.81,11.81,0,0,0,.21-2v-.35c.49.16.9.3,1.14.4a18.16,18.16,0,0,1-.3,2.19c-.16,1-.89,1.49-2.24,1.49h-1.79c-1.46,0-2.13-.57-2.05-1.78v-1.71c-.35.19-.89.46-1.59.81-.49.22-.87.41-1.09.52A5.19,5.19,0,0,0,235.56,993Z" transform="translate(0.2 0)"/>
        <path class="cls-17" d="M252.81,990.51h2v-1.9H254v-.67a3.2,3.2,0,0,0-.16.35,8.43,8.43,0,0,1-.46.76,4,4,0,0,0-.57-.81.5.5,0,0,0-.11-.17,17.35,17.35,0,0,0,2.35-4.92l1.08.3c-.21.62-.46,1.19-.67,1.73h2.65v1H255a2.49,2.49,0,0,0-.16.35,8.84,8.84,0,0,1-.63,1.13h3.57v1h-1.89v1.89h2.05v1h-2.05v3c.49-.35,1.19-.78,2.05-1.32.08.46.17.81.22,1.08l-2.3,1.38c-.46.35-.73.54-.81.62l-.76-.92a1.38,1.38,0,0,0,.52-1.14v-2.7h-2v-1Zm5.3-3.92,1.94-.22c0-1-.05-2.08-.05-3.27h1.08c0,1.14,0,2.19.05,3.16l4.71-.51.1.92-4.75.57a6,6,0,0,0,.05.62c0,.62.08,1,.11,1.32l4.7-.57.11,1-4.7.57a10,10,0,0,0,.75,2.75,16.34,16.34,0,0,0,2.3-2.46l.87.62a29.63,29.63,0,0,1-2.65,2.87,3.28,3.28,0,0,0,1.32,1.27c.62.38,1,.27,1.14-.35,0-.16.08-.35.11-.62.1-.65.19-1.14.21-1.49a8.6,8.6,0,0,0,1,.35,14.53,14.53,0,0,1-.36,2c-.21,1-.7,1.52-1.43,1.43a2.2,2.2,0,0,1-1.54-.56,8.86,8.86,0,0,1-1.32-1.38,22.83,22.83,0,0,1-3.38,1.89,8.27,8.27,0,0,0-.76-.92,14.32,14.32,0,0,0,3.54-1.89,12.06,12.06,0,0,1-.92-3.38l-2.05.22-.16-.92,2.05-.3c0-.62-.11-1.27-.16-1.95l-1.79.17Zm3.94-2.79.62-.62a18.46,18.46,0,0,1,1.9,1.54l-.76.76A10.74,10.74,0,0,0,262.05,983.8Z" transform="translate(0.2 0)"/>
      </g>
      <circle class="cls-17" cx="179.79" cy="989.89" r="1.03"/>
    </g>
    <g>
      <path class="cls-17" d="M121.47,950.69H113v-11a1.21,1.21,0,0,0-1.22-1.21h-1.11a1.21,1.21,0,0,0-1.21,1.21v11.06h-9a1.21,1.21,0,0,0-1.21,1.22v.83a1.21,1.21,0,0,0,1.21,1.22h9v16.68a1.21,1.21,0,0,0,1.21,1.21h1.11a1.21,1.21,0,0,0,1.22-1.21V954h8.51a1.21,1.21,0,0,0,1.22-1.22v-.83A1.24,1.24,0,0,0,121.47,950.69Z" transform="translate(0.2 0)"/>
      <path class="cls-17" d="M99.9,939.64a1.3,1.3,0,0,0-.73-.62L98,938.69a1.21,1.21,0,0,0-1.49.84A52.19,52.19,0,0,1,89,955.07a1.22,1.22,0,0,0,0,1.41c.19.29.38.59.54.89a1.21,1.21,0,0,0,2,.13A39.16,39.16,0,0,0,94,953.75v17.08a1.21,1.21,0,0,0,1.22,1.22h1a1.21,1.21,0,0,0,1.22-1.22V947.12c1-2.13,1.84-4.32,2.59-6.51A1.31,1.31,0,0,0,99.9,939.64Z" transform="translate(0.2 0)"/>
      <path class="cls-17" d="M150.85,957a1.19,1.19,0,0,0-1.67-.21l-.79.59a1.23,1.23,0,0,0-.24,1.71c1.73,2.32,3.35,4.56,4.84,6.73-3.78.35-8.7.62-14.62.78-1.22.08-2.19.11-3,.14a119.51,119.51,0,0,0,15.76-19.41,1.24,1.24,0,0,0,.16-1,1.22,1.22,0,0,0-.59-.79l-1.16-.65a1.21,1.21,0,0,0-1.63.44A111.77,111.77,0,0,1,133,964.61a12.14,12.14,0,0,1-3,2.25,1.2,1.2,0,0,0-.54,1.62l.65,1.32a1.2,1.2,0,0,0,1.35.65,31.13,31.13,0,0,1,3.46-.54c8.73-.65,15.48-1.08,20.11-1.27a8.66,8.66,0,0,0,.59.84c.22.32.41.62.57.89a1.18,1.18,0,0,0,.81.54l.19,0a1.14,1.14,0,0,0,.76-.27l1.05-.84a1.24,1.24,0,0,0,.22-1.7C156.56,964.53,153.72,960.77,150.85,957Z" transform="translate(0.2 0)"/>
      <path class="cls-17" d="M144.07,940.77a1.23,1.23,0,0,0-.51-1.75l-1-.49A1.18,1.18,0,0,0,141,939a61.26,61.26,0,0,1-14.27,16.62,1.27,1.27,0,0,0-.46.86,1.21,1.21,0,0,0,.33.92c.24.27.46.52.7.76a1.2,1.2,0,0,0,.89.41,1.12,1.12,0,0,0,.73-.27A67.25,67.25,0,0,0,144.07,940.77Z" transform="translate(0.2 0)"/>
      <path class="cls-17" d="M172.67,939.37a1.26,1.26,0,0,0-.79-.6l-.56-.13a1.18,1.18,0,0,0-1.44.86A54.08,54.08,0,0,1,163,954.75a1.16,1.16,0,0,0,0,1.29c.08.17.19.33.27.49a1.26,1.26,0,0,0,1,.65,1.12,1.12,0,0,0,1.06-.57c.51-.81,1-1.65,1.46-2.51v16.57a1.21,1.21,0,0,0,1.21,1.21h.71a1.21,1.21,0,0,0,1.21-1.21V948c1-2.32,2-4.89,2.87-7.59A1.2,1.2,0,0,0,172.67,939.37Z" transform="translate(0.2 0)"/>
      <path class="cls-17" d="M195.67,968.05h-2V948.4a1.21,1.21,0,0,0-1.22-1.22h-6.84v-2.49H195a1.21,1.21,0,0,0,1.21-1.21v-.57a1.21,1.21,0,0,0-1.21-1.22h-9.36v-2.16a1.21,1.21,0,0,0-1.21-1.22h-.71a1.21,1.21,0,0,0-1.21,1.22v2.16h-8.65a1.21,1.21,0,0,0-1.22,1.22v.57a1.21,1.21,0,0,0,1.22,1.21h8.65v2.49h-6.87a1.21,1.21,0,0,0-1.21,1.22v19.65h-2.14a1.22,1.22,0,0,0-1.22,1.21v.43a1.22,1.22,0,0,0,1.22,1.22h23.35a1.21,1.21,0,0,0,1.22-1.22v-.43A1.16,1.16,0,0,0,195.67,968.05Zm-5.11-18.14v2.62h-13v-2.62Zm0,5.35v2.49h-13v-2.49Zm0,5.22V963h-13v-2.48Zm0,5.35v2.22h-13v-2.22Z" transform="translate(0.2 0)"/>
      <path class="cls-17" d="M201.29,949.4a1.28,1.28,0,0,0,.89.62l.19,0a1.11,1.11,0,0,0,.81-.32,53.33,53.33,0,0,0,7.68-9,1.24,1.24,0,0,0,.16-1,1.2,1.2,0,0,0-.62-.78l-.73-.41a1.23,1.23,0,0,0-1.6.44,32.24,32.24,0,0,1-6.89,8.1,1.24,1.24,0,0,0-.27,1.6C201.05,948.94,201.16,949.15,201.29,949.4Z" transform="translate(0.2 0)"/>
      <path class="cls-17" d="M214.7,952.86h15.43a1.22,1.22,0,0,0,1.22-1.22v-10.7a1.21,1.21,0,0,0-1.22-1.22H214.7a1.21,1.21,0,0,0-1.22,1.22v10.7A1.22,1.22,0,0,0,214.7,952.86Zm1.89-8v-2.49h11.62v2.49Zm0,5.22v-2.49h11.62v2.49Z" transform="translate(0.2 0)"/>
      <path class="cls-17" d="M233.19,960h-3.65V957.8h3a1.21,1.21,0,0,0,1.22-1.21v-.44a1.21,1.21,0,0,0-1.22-1.21h-19.6a1.21,1.21,0,0,0-1.21,1.21v.44a1.21,1.21,0,0,0,1.21,1.21h13.52V960H211.51a1.21,1.21,0,0,0-1.22,1.21v.44a1.21,1.21,0,0,0,1.22,1.21h3.38l-.52.41a1.19,1.19,0,0,0-.46.84,1.3,1.3,0,0,0,.3.92c.81.94,1.57,1.86,2.33,2.75a1.21,1.21,0,0,0,.91.43,1.07,1.07,0,0,0,.68-.21l.59-.41a1.08,1.08,0,0,0,.52-.83,1.23,1.23,0,0,0-.27-.95c-.79-1-1.65-2-2.54-3h10v3.52a1.68,1.68,0,0,1-2.06,2.08c-.73,0-2.29,0-3.54-.08a1.15,1.15,0,0,0-1,.43,1.24,1.24,0,0,0-.24,1c0,.27.1.52.16.76a1.21,1.21,0,0,0,1.19,1h4.24a4.5,4.5,0,0,0,3.3-1.1,4.41,4.41,0,0,0,1.05-3.3v-4.35h3.63a1.21,1.21,0,0,0,1.21-1.22v-.43A1.2,1.2,0,0,0,233.19,960Z" transform="translate(0.2 0)"/>
      <path class="cls-17" d="M211.05,948.64a1.23,1.23,0,0,0-.57-.76l-.59-.35a1.22,1.22,0,0,0-.92-.11,1.12,1.12,0,0,0-.73.6,49.36,49.36,0,0,1-7.41,9.94,1.26,1.26,0,0,0-.22,1.38c.14.3.28.57.41.84a1.21,1.21,0,0,0,2,.32c.78-.89,1.57-1.78,2.3-2.7v13a1.21,1.21,0,0,0,1.21,1.22h.71a1.21,1.21,0,0,0,1.21-1.22V953.64c.76-1.24,1.6-2.6,2.52-4.06A1.57,1.57,0,0,0,211.05,948.64Z" transform="translate(0.2 0)"/>
      <path class="cls-17" d="M240.37,943.29H266c-.89,1.89-1.73,3.51-2.46,4.83a1.24,1.24,0,0,0-.08,1,1.27,1.27,0,0,0,.65.73l.81.38a1.23,1.23,0,0,0,.54.13,1.18,1.18,0,0,0,1.06-.62c.81-1.46,1.78-3.41,2.83-5.78a5.85,5.85,0,0,0,.52-2.44,1.21,1.21,0,0,0-1.22-1.21H240.37a1.21,1.21,0,0,0-1.21,1.21v.57A1.27,1.27,0,0,0,240.37,943.29Z" transform="translate(0.2 0)"/>
      <path class="cls-17" d="M252,951.67a1.28,1.28,0,0,0,.95-.46l.51-.68a1.15,1.15,0,0,0,.24-.95,1.2,1.2,0,0,0-.48-.81,70.15,70.15,0,0,0-6.25-4,1.23,1.23,0,0,0-1.54.27l-.38.46a1.29,1.29,0,0,0-.27,1,1.24,1.24,0,0,0,.54.84c2.14,1.4,4.14,2.78,5.92,4.11A1.33,1.33,0,0,0,252,951.67Z" transform="translate(0.2 0)"/>
      <path class="cls-17" d="M249.73,954.29c-1.6-1.14-3.84-2.57-6.63-4.25h0a1.21,1.21,0,0,0-1.59.3l-.32.43a1.2,1.2,0,0,0-.25,1,1.3,1.3,0,0,0,.52.81c2.32,1.62,4.46,3.14,6.29,4.46a1.17,1.17,0,0,0,.71.22,1.24,1.24,0,0,0,.94-.46l.54-.68a1.2,1.2,0,0,0,.25-.94A1.1,1.1,0,0,0,249.73,954.29Z" transform="translate(0.2 0)"/>
      <path class="cls-17" d="M269.81,958.18H258.48a81.7,81.7,0,0,0,.9-12.87,1.27,1.27,0,0,0-.35-.89,1.18,1.18,0,0,0-.87-.35h-1a1.21,1.21,0,0,0-1.22,1.22,68,68,0,0,1-.92,12.89H239a1.21,1.21,0,0,0-1.22,1.22V960a1.21,1.21,0,0,0,1.22,1.22h15.22c-1.22,3-6,5.54-14.22,7.68a1.22,1.22,0,0,0-.84.75,1.25,1.25,0,0,0,.16,1.14c.19.27.44.59.68.92a1.18,1.18,0,0,0,1,.48,1.34,1.34,0,0,0,.35,0c7.46-2.27,12.36-4.81,14.55-7.62,5.29,2.78,9.27,5,11.86,6.62a1.19,1.19,0,0,0,1.6-.3l.64-.86a1.21,1.21,0,0,0,.22-1,1.19,1.19,0,0,0-.62-.81c-4-2.22-8.06-4.36-12-6.41.08-.19.16-.38.22-.54h12A1.21,1.21,0,0,0,271,960v-.56A1.17,1.17,0,0,0,269.81,958.18Z" transform="translate(0.2 0)"/>
    </g>
  </g>
  <use width="31.57" height="33.78" transform="matrix(2.02, 0, 0, -2.02, 12.31, 817.34)" xlink:href="#graph_blue"/>
  <use width="7" height="26.42" transform="matrix(2.02, 0, 0, -2.02, 1.18, 810.13)" xlink:href="#graph_orange"/>
  <use width="24.4" height="26.1" transform="matrix(2.02, 0, 0, -2.02, 12.11, 809.89)" xlink:href="#graph_green"/>
  <use width="12.14" height="12.19" transform="matrix(2.02, 0, 0, -2.02, 20.67, 795.6)" xlink:href="#graph_white"/>
  <g id="graph_text_small" data-name="graph text small">
    <path d="M238.8,783.16c-8,11-17.11,11.21-17.21,11.21h-.65l.59-3,.38-.06a8,8,0,0,0,1.18-.24,19.35,19.35,0,0,0,3.13-1.22,24,24,0,0,0,8.21-6.8h-1.3L236,769.85H223.17l.65-2.79H229l2.1-9.94h3.37l-2.11,9.94h3.83l2.69-12.84h3.44l-1.17,5.67h7.21l-.55,2.51-.1.41h-7.19l-.91,4.25h7.49l-.65,2.79h-7.08l-1.93,9.32,4-5.1h4.21l-.63.81S241.29,779.72,238.8,783.16Zm10.4-27.52h21.39L270.1,758l-.08.42h-8.48c-.63,1.3-1.26,2.51-1.87,3.53-.34.54-.64,1-.93,1.41h4.11a4.26,4.26,0,0,1,2.66.75,2.79,2.79,0,0,1,1,2.35,7,7,0,0,1-.29,1.89l-3.54,16.48h-3.32L263,767.63a2.69,2.69,0,0,0,.06-.53c-.08-.59-.1-.85-1.19-.91h-5.57a10.91,10.91,0,0,0-3,.32,4.72,4.72,0,0,0-1.64,1.2L248,784.29l-.08.41h-3.32l4.74-21.12h3.15l0,.48c.7-.3,1.44-.4,2.13-.65a18.94,18.94,0,0,0,3.38-5h-9.33l.56-2.73Zm-58.54,18.3-4.49,20.17-.09.41h-3.52l4.34-19.2-7.74,7.9,1.44-5.79,13-13.89H182.22l.59-2.9h11.78a4.83,4.83,0,0,1,2.45.49,1.59,1.59,0,0,1,.87,1.41c-.08,1.64-1.88,3.16-1.86,3.2l-4.36,4.8,1.14-.06.1.41a19,19,0,0,0,1.74,3.8c.63,1,1.14,1.72,1.14,1.72l.61.81-3.61,0-.16-.17A9.71,9.71,0,0,1,190.66,773.94Zm72.14,17.7.38.27-1.46,2.63-.44-.18c-.13,0-3.77-1.55-7.5-9.28-5.36,8.91-15.12,9.36-15.18,9.38l-.75,0,1-3.22.36,0a12.48,12.48,0,0,0,2.27-.55,19.56,19.56,0,0,0,5.37-2.92,16.89,16.89,0,0,0,4.15-4.59,10.05,10.05,0,0,0,1-2.13l2.9-12.49h3.48l-2.9,12.87h.49l.14.35a22.91,22.91,0,0,0,6.06,9.35A5.21,5.21,0,0,0,262.8,791.64Zm-53.53-.06h10.06l-.58,2.51-.08.41H207.23a3.33,3.33,0,0,1-2.19-.61,2.29,2.29,0,0,1-.75-1.88,5.92,5.92,0,0,1,.14-1.26l1.44-6.78a26.89,26.89,0,0,1-16.5,10.61l-.83.12.93-3.17.32-.07a4.49,4.49,0,0,0,.53-.12,13.25,13.25,0,0,0,1.62-.61,30,30,0,0,0,6.13-3.66,23.91,23.91,0,0,0,6.1-7.29,27.87,27.87,0,0,0,1.94-4.11l3-15.17h3.56l-3,14.72h1.43l-3,15.41,0,.24C208.12,791.36,208.32,791.54,209.27,791.58Zm-12.68-10.73,5.67-25.48h3.14l0,.43a7.18,7.18,0,0,1,2.7-.34h8.2a7.31,7.31,0,0,1,3.75.79,2.76,2.76,0,0,1,1.41,2.53,6.07,6.07,0,0,1-.18,1.31l-4.66,20.76h-3.5l4.63-20.47a3.26,3.26,0,0,0,.13-.85,1.11,1.11,0,0,0-.41-1,2.32,2.32,0,0,0-1.47-.34h-7.82a4.59,4.59,0,0,0-3.34,1.48l-4.7,20.75-.08.41ZM193,759.53h-3.18L191,754.2h3.18l-1.1,4.92Zm29.57,27.23-1,.59.72-4.5.17-.12a21.61,21.61,0,0,0,2.67-2.83,22.39,22.39,0,0,0,4.09-7.6l.1-.36h3.44l-.14.63A24.41,24.41,0,0,1,222.58,786.76Zm-50,4.76h6.52l-.77,2.92c-.63-.06-7.09,0-7.29,0-3.06,0-3.5-1.24-3.18-3l6.4-29.38c.53-2.55.47-3.87-3.16-3.87H154.66l.71-2.92h18.1c6,0,5.2,3.2,4.76,6l-6.38,29.46C171.69,791.42,172.05,791.52,172.62,791.52Zm-29.87-33.61c-.62-1.08-1.94-3.67-1.94-3.67h3.52a26.76,26.76,0,0,0,1.7,3.12,46.32,46.32,0,0,0,3.1,4.35l-2.75,1.4S143.4,759,142.75,757.91Zm27,16.87H161l-4.36,19.7H153l4.33-19.6H148.2l.77-3h9.13l2.73-12h3.55l-2.72,12h8.89Zm-68.84-17.42a5.92,5.92,0,0,0-2.84.75L96.4,766h5l1.68-7.68C103.27,757.54,101.4,757.36,100.94,757.36Zm-.25,11.5h-5l-1.88,8.71h5Zm6-11.1L99.2,791.38c-.71,3.34-3.1,3.06-3.77,3.06H92.49l.67-3.08h2.29c.4,0,.51-.53.63-1.11l2.06-9.46H93l-2.31,10.43c-.61,2.71-2.41,3.22-3.16,3.22H84.29l.71-3.08h1.7c.28,0,.61-.22.81-1.24l8-35.82h3.5a2.35,2.35,0,0,0-.06.51,9.51,9.51,0,0,1,3.49-.55C104.52,754.26,107.3,755,106.67,757.76Zm10.89,11.81a19.4,19.4,0,0,1-3.12,3.08h13.13a10.12,10.12,0,0,1-1.75-3.08Zm8.2,6.14H113.47l-1.09,4.82h14.21l.59-2.88C127.28,777.12,127.75,775.71,125.76,775.71Zm5.45-15h4.64l-.73,3H121.86l-1.67,2.61h16.22l-.74,3.08h-6.06c.65,2.17,3.1,4.33,5.18,5.32l-1.17,2.37a9.38,9.38,0,0,1-2.81-1.45l-1,5a1.78,1.78,0,0,1,1.83,2.06l-1.77,7.74c-.89,3.62-3.24,3.91-6.52,3.91h-14.5l1-2.82H124c1.42,0,2.21-.89,2.67-2.55l.92-3.42c.3-1.3,0-2.19-1.3-2.19H110.43c-1.6,0-2-1.15-1.66-2.73l1.16-5.25a30.55,30.55,0,0,1-6,1.72l.75-3.32c2.61,0,6-1.92,8.39-4.41h-7.54l.73-3h9.46a17.38,17.38,0,0,0,2-2.65h-9.41l.73-3.08h5.77c-1.85-1.56-2.8-4.7-3.32-6.22h4.17c.81,2.09,1.8,4.66,4.11,6.2l3.24-6.2h3.91s-2.78,5.53-3.28,6.34H126c2-.83,5.24-4.19,6.92-6.34h3.79A33.78,33.78,0,0,1,131.21,760.76Zm-6.42,28H103.45l.73-2.44h21.34ZM143,791.83h6.09l-.83,2.67h-6c-2.66,0-4.05-.71-3.53-3.16l4.46-20.72c.16-.71,0-1.29-.93-1.29h-4.09l.7-3h5.23a2.83,2.83,0,0,1,2.81,3.56l-4.53,21.29C142.27,791.62,142.55,791.82,143,791.83Z" transform="translate(0.2 0)"/>
    <g>
      <g>
        <g>
          <path class="cls-18" d="M3,584.46s-.88-11.55,10.66-14.8c11.54-.45,66.9,0,66.9,0s10.81,2.37,11.1,14.8c-.15,12.43,0,37.3,0,37.3s-.59,12.13-11,14.06a53.29,53.29,0,0,0-5.92,0s-.3,5.1-4.66,5.18-5-3.55-5.18-4.89c-2.67,0-34.64.15-34.64.15S29.75,641,25.39,641s-4.59-3.92-4.89-4.74c-2.81,0-6.66-.07-6.66-.07s-9.65-2-10.89-14.51C3.11,609.18,3,584.46,3,584.46Z" transform="translate(0.2 0)"/>
          <path class="cls-18" d="M33.67,569.46l-8.19-7.94s-1.28-1.57.89-3.35,2.28-1,3-.49,12.18,11.78,12.18,11.78Z" transform="translate(0.2 0)"/>
          <path class="cls-18" d="M60.88,569.76l8.19-7.94s1.28-1.58-.89-3.35-2.29-1-3-.5S53,569.76,53,569.76Z" transform="translate(0.2 0)"/>
        </g>
        <path class="cls-1" d="M82.71,624a3.52,3.52,0,0,1-3.47,3.55h-63A3.51,3.51,0,0,1,12.75,624V582.29a3.51,3.51,0,0,1,3.47-3.55h63a3.52,3.52,0,0,1,3.47,3.55Z" transform="translate(0.2 0)"/>
        <g>
          <polygon class="cls-18" points="19.59 594.08 38.09 590.52 39.49 597.48 21.14 601.03 19.59 594.08"/>
          <polygon class="cls-18" points="77.16 594.08 58.66 590.52 57.25 597.48 75.61 601.03 77.16 594.08"/>
          <path class="cls-18" d="M39.29,611.32s4.07,7.33,8.59-2.37c4.36,9.47,9.17,2.51,9.17,2.51l2.74,1.78s-5.1,8.22-11.84,2c-5.7,6.22-11.69-2-11.69-2Z" transform="translate(0.2 0)"/>
        </g>
      </g>
      <g>
        <g>
          <g class="cls-19">
            <path class="cls-18" d="M104.26,570.32l13.22-4.93s-1,39.37,1.88,45.88c9.47-1.58,29.11,3.06,31.77,9,2.17,6.12-5.23,16.38-37.79,18C112.25,623.8,112.15,608.06,104.26,570.32Z" transform="translate(0.2 0)"/>
          </g>
          <g>
            <path class="cls-18" d="M156.19,633.27l6.71-1s-2.17-28.82-3.36-29.7-8.29.78-8.78.88S156.19,633.27,156.19,633.27Z" transform="translate(0.2 0)"/>
            <path class="cls-18" d="M150,599.53l3.46-.59s-1.58-10.76-1.73-11.35a21.13,21.13,0,0,0-4,.89Z" transform="translate(0.2 0)"/>
            <path class="cls-18" d="M153.43,587.19a34.37,34.37,0,0,1,4.44,0c.23.84,1,11.55,1,11.55a17.8,17.8,0,0,0-4,0C154.41,596.86,153.43,587.19,153.43,587.19Z" transform="translate(0.2 0)"/>
          </g>
          <path class="cls-18" d="M159.84,574.37a512.68,512.68,0,0,1,7.3,55.45,17.16,17.16,0,0,0,5.92,0s-4.14-54.07-4.14-55.45S159.84,574.37,159.84,574.37Z" transform="translate(0.2 0)"/>
          <g>
            <path class="cls-18" d="M178.9,634.27l6.78-.35s.55-28.89-.54-29.88-8.33,0-8.83.05S178.9,634.27,178.9,634.27Z" transform="translate(0.2 0)"/>
            <path class="cls-18" d="M175.9,600.09l3.49-.26s-.56-10.86-.65-11.46a21,21,0,0,0-4.06.5Z" transform="translate(0.2 0)"/>
            <path class="cls-18" d="M180.5,588.14a32,32,0,0,1,4.42.42c.15.85-.11,11.58-.11,11.58a18.07,18.07,0,0,0-4-.38C180.57,597.86,180.5,588.14,180.5,588.14Z" transform="translate(0.2 0)"/>
          </g>
        </g>
        <g>
          <g class="cls-20">
            <path class="cls-18" d="M187.44,570.32l13.22-4.93s-1,39.37,1.88,45.88c9.47-1.58,29.11,3.06,31.77,9,2.17,6.12-5.23,16.38-37.79,18C195.43,623.8,195.34,608.06,187.44,570.32Z" transform="translate(0.2 0)"/>
          </g>
          <g>
            <path class="cls-18" d="M239.37,633.27l6.71-1s-2.17-28.82-3.35-29.7-8.29.78-8.79.88S239.37,633.27,239.37,633.27Z" transform="translate(0.2 0)"/>
            <path class="cls-18" d="M233.15,599.53l3.46-.59s-1.58-10.76-1.73-11.35a21.13,21.13,0,0,0-4,.89Z" transform="translate(0.2 0)"/>
            <path class="cls-18" d="M236.61,587.19a34.37,34.37,0,0,1,4.44,0c.23.84,1,11.55,1,11.55a17.8,17.8,0,0,0-4,0C237.59,596.86,236.61,587.19,236.61,587.19Z" transform="translate(0.2 0)"/>
          </g>
          <path class="cls-18" d="M243,574.37a512.68,512.68,0,0,1,7.3,55.45,17.16,17.16,0,0,0,5.92,0s-4.14-54.07-4.14-55.45S243,574.37,243,574.37Z" transform="translate(0.2 0)"/>
          <g>
            <path class="cls-18" d="M262.09,634.27l6.77-.35s.56-28.89-.54-29.88-8.33,0-8.83.05S262.09,634.27,262.09,634.27Z" transform="translate(0.2 0)"/>
            <path class="cls-18" d="M259.08,600.09l3.49-.26s-.55-10.86-.65-11.46a21,21,0,0,0-4.06.5Z" transform="translate(0.2 0)"/>
            <path class="cls-18" d="M263.68,588.14a32,32,0,0,1,4.42.42c.15.85-.1,11.58-.1,11.58a18.18,18.18,0,0,0-4-.38C263.75,597.86,263.68,588.14,263.68,588.14Z" transform="translate(0.2 0)"/>
          </g>
        </g>
      </g>
    </g>
    <g>
      <path class="cls-21" d="M70.57,1068.18c.43-.12.72-.31,1.14-.43-.07,7.18,0,15.06-.07,22.24H69.28c-1.16-2.93-1.62-6-3.14-8.37-1.47.09-1.48.43-2.3,1a69.79,69.79,0,0,0-3,7.39c-.43,0-1.09,0-1.56,0h-.64c-.07-2.38-.13-5.36-.2-7.73-.28.16-.56.37-.83.56-2.45,2.37-4.9,4.72-7.34,7.09-5.56,1.86,1.95-6.61,2.51-8.79-2.57-.9-3.71-2.38-3.56-6.07l.84.21c.43,1.61,2.28,3.61,4.6,2.51,2.9-1.51,4.74-6.82,6.21-9.87A19,19,0,0,0,70.57,1068.18Z" transform="translate(0.2 0)"/>
      <path class="cls-21" d="M87.78,1051.1c-14.21,2.91-27.71-4.91-29.94-10.42-.21-.37.19-.91.63-1a1,1,0,0,1,.9-.21c6.69,7.14,15.38,11.56,29.56,9,3.14-.56,6.81-2,8.51-4.06a13.33,13.33,0,0,0,2.3-6.06c5.15-16.25-8.63-19.18-23-18.84a90.62,90.62,0,0,0-14.23,1.68c-13.45,3.37-25.26,8-33.9,16.11-2.36-1-5.36-3.75-8.37-2.93-2,1-7.45,14.93-8.58,17.79-.59,1.49-1.35,4.24-.42,5.86,1.51,3.27,6.27,2.29,9,.83,4.39-2.34,8.09-7.34,6.49-14.85l.42-.42a13.16,13.16,0,0,0,3.12,6.56c7.15,9,29.21,20.6,44.79,15.17,4.2-1.46,8-4,11.3-6.35,1-.68,6.37-5.15,8.82-10.25m-32.73-16.15h0a2.46,2.46,0,1,1,.1-.68,2.83,2.83,0,0,1-.09.65Zm33.06-6.49c-1.39,3.39-14,3.74-14.65.21,0-2.23,3.93-3,7.12-3.14a15.74,15.74,0,0,1,6.69,1.26A1.68,1.68,0,0,1,95.49,1026.17Z" transform="translate(0.2 0)"/>
    </g>
    <g>
      <path class="cls-22" d="M116.15,1058.21c0,2.71-3.34,3.45-3.92,3.45s-1.59-.05-1.59-.05v2.91h2.7c5.3,0,6-4.45,6-6.41V1045h-3.23Z" transform="translate(0.2 0)"/>
      <path class="cls-22" d="M128.08,1045h-6.73v19.51h6.36c2.38,0,9.06-1,9.06-9.75S130.83,1045,128.08,1045Zm.21,16.49h-3.5V1048h2.92c1.85,0,5.78,1.21,5.78,6.73S129.09,1061.5,128.29,1061.5Z" transform="translate(0.2 0)"/>
      <path class="cls-22" d="M151.67,1061.5a6.86,6.86,0,0,1-6.74-6.73,6.77,6.77,0,0,1,6.84-6.73c3.18,0,4.4,1.74,4.4,1.74l2.41-2.17a10.65,10.65,0,0,0-6.91-2.75c-4.14,0-9.92,3.28-9.92,9.91s5.2,9.75,10,9.75,6.82-2.73,6.82-2.73l-2.41-2.41C155.32,1060.39,154.58,1061.5,151.67,1061.5Z" transform="translate(0.2 0)"/>
      <path class="cls-22" d="M139.24,1060.12a1.88,1.88,0,1,0,1.88,1.88A1.89,1.89,0,0,0,139.24,1060.12Z" transform="translate(0.2 0)"/>
      <path class="cls-22" d="M168.31,1044.86a10,10,0,1,0,10,10A10,10,0,0,0,168.31,1044.86Zm-.07,16.78a6.86,6.86,0,1,1,6.86-6.86A6.86,6.86,0,0,1,168.24,1061.64Z" transform="translate(0.2 0)"/>
      <polygon class="cls-22" points="190.06 1057.52 183.67 1045.6 180.44 1045.6 180.44 1064.15 183.35 1064.15 183.35 1052.01 189.93 1063.51 196.55 1051.9 196.55 1063.88 199.68 1063.88 199.68 1045.6 196.55 1045.6 190.06 1057.52"/>
      <polygon class="cls-22" points="234.19 1044.96 223.48 1044.96 223.53 1043.74 219.88 1043.74 219.88 1045.07 209.38 1045.07 209.38 1047.13 234.19 1047.13 234.19 1044.96"/>
      <polygon class="cls-22" points="208.8 1065 211.24 1065 216.01 1057.1 211.82 1057.1 208.8 1065"/>
      <polygon class="cls-22" points="236.34 1064.68 238.68 1064.68 243.27 1057.26 239.25 1057.26 236.34 1064.68"/>
      <polygon class="cls-22" points="254.84 1057.41 259.43 1064.83 261.77 1064.83 258.87 1057.41 254.84 1057.41"/>
      <polygon class="cls-22" points="227.68 1057.42 232.12 1065 234.4 1065 231.58 1057.42 227.68 1057.42"/>
      <path class="cls-22" d="M233.15,1048.3H209.93v7h9.8v5.94c0,.63-.9,1.48-2.33,1.48V1065s2.95,0,4.46-1.24a5.22,5.22,0,0,0,1.63-3.32v-5.09h9.66Zm-3.24,5.2H213.47v-3.29h16.44Z" transform="translate(0.2 0)"/>
      <path class="cls-22" d="M244.94,1045l.76-1.27h-3.87l-.53,1.17h-4.82v2.41h3.9l-3.16,8.08h10.07v5.44c0,1.24-.76,1.85-1.14,1.85l-1.16,0v2.11h1.72c2.25,0,4.32-2.22,4.32-3.38v-6h9.65v-2.14h-9.6v-3h-3.76v3h-5.38l2.39-5.94h17.24V1045Z" transform="translate(0.2 0)"/>
    </g>
    <path class="cls-23" d="M43.24,865.92a12.92,12.92,0,0,0-6.65,4.29c-2.67,3.34-3,8.92-.66,12.24a5.47,5.47,0,0,0,6,2.36,4.92,4.92,0,0,0,4.06-4.69,11.86,11.86,0,0,0-.09-3.81c-.75-3.42-1.69-6.79-2.61-10.39Zm9.28-.42c.93,4,2,7.65,2.6,11.37,1.64,9.65-5.4,15.71-12,16.87-7.79,1.39-15.36-3.85-17.17-11.89-2.35-10.5,2.73-20,12.81-23.89l2.09-.83c-.36-1.35-.69-2.73-1.09-4.09-2.8-9.45,6.19-18.1,15.55-15.6a25.09,25.09,0,0,1,7.23,3.6,4.22,4.22,0,0,1,.88,6.32c-1.54,2-4.21,2.18-6.43.68a13.31,13.31,0,0,0-3.69-1.85c-2.89-.81-5,1-4.76,4a29.28,29.28,0,0,0,1.18,5.19,1.45,1.45,0,0,0,1.06.79c17.76,1.1,32.89,23.82,18.73,45.05C58.68,917.49,34.77,920.9,19,908.59a37.23,37.23,0,0,1,7.5-63.54,10,10,0,0,1,4.3-1,4.15,4.15,0,0,1,3.69,3.75,4.47,4.47,0,0,1-2.52,4.66c-2.58,1.39-5.4,2.52-7.66,4.34-9.26,7.5-12.81,17.31-10,28.86,2.76,11.31,10,18.69,21.63,20.89,10.73,2,23.3-2.23,28.4-14.35,4-9.62,1.31-20-8.86-25.58A25.75,25.75,0,0,0,52.52,865.5Z" transform="translate(0.2 0)"/>
    <g>
      <path class="cls-23" d="M238.84,872c0,2.34-.19,4,2.76,4l8.84,0,.09,12c-.49,1.81-4,.23-4.16,2.07a6.81,6.81,0,0,0,0,.7H252c1.71,0,2.24-1.26,2.24-3.1V876.07h11.88c0-.5,0-.83,0-1.05-.06-.57-.35-.84-1.62-.84H254.22v-6.24h-3.54v6.17l-6.09,0c-.82-.06-1.82.15-2-.83-.31-1.77.11-5.42.53-8.69l21.65-.36.06-1.62-25.55.22-.44,9.17Zm24.55,7.22a27.29,27.29,0,0,0,3.05,10.53c-3.37-1.51-5.87-4.4-7-10.53Zm-21.95,0h4c-1.14,6.13-4,8.81-7.39,10.32A26.45,26.45,0,0,0,241.44,879.2Z" transform="translate(0.2 0)"/>
      <path class="cls-23" d="M136.14,881.53c3,0,4.71-.87,6.89-4.17l4.57,0c-2.32,4.32-7.43,7.66-11.46,10.19,6,.38,13.84-6.82,15.4-10.25l4.46,0c-1.84,5.87-7.59,10.25-12.72,13.24,5.7.81,15.25-7.16,16.56-13h2.29a1.46,1.46,0,0,1,1.53,1.25v5.71c-.07,2.78-2.13,4.38-6.45,4.53a.85.85,0,0,0-.78.66l0,1,4.76,0c4.09.11,6.07-2.79,6-6.22l-.09-5.39a4.47,4.47,0,0,0-4.76-3.83l-20.89-.11-1-.76c-.63,3.77-1.85,4.76-4.38,7.08ZM140.93,871c0,1.66,1.29,3.06,3.47,3.06h20.77l.1-7.57c0-2.51-1.85-3.4-4.57-3.4l-18.62,0-1.15-.76V871Zm3.82-6h15.52a1.2,1.2,0,0,1,1.2,1.2v1.19H144.75V865Zm16.72,6.7H146a1.2,1.2,0,0,1-1.2-1.2v-1.19h16.72Z" transform="translate(0.2 0)"/>
      <path class="cls-23" d="M207.25,887.51c0,1.78.68,3.13,2.42,3.13h22.84V879.1c0-2.32-2-3.16-3.71-3.16l-21.16-.17h-.39v11.74Zm-2.88-15.21h5.45c-.67-1-.79-1.88-.79-3.8h3.72l0,2.43a1.56,1.56,0,0,0,.75,1.37h12.59a1.56,1.56,0,0,0,.75-1.37l0-2.43h3.72c0,1.92-.12,2.83-.78,3.8h4.58a1.06,1.06,0,0,1,1.08,1v1H205.45a1.06,1.06,0,0,1-1.08-1v-1Zm.91-8h12.57v-2.18h3.9v2.18h11.62a1,1,0,0,1,1,1v1H206.29a1,1,0,0,1-1-1v-1Zm23.37,24.07H211.84a.83.83,0,0,1-.82-.83v-3.3h17.63v4.13ZM211,878.08h16.8a.83.83,0,0,1,.83.83v3.3H211Z" transform="translate(0.2 0)"/>
      <path class="cls-23" d="M109,868.26h3.13a22.34,22.34,0,0,0,1,6.4,33.17,33.17,0,0,0,1.39-6.57h3.14a62.33,62.33,0,0,1-3.39,10.46,21,21,0,0,0,3.34,5.65v2.13a32.87,32.87,0,0,1-4.53-5.45,28.6,28.6,0,0,1-4.53,5.44v-1.88a52.41,52.41,0,0,0,3.6-5.89A39.26,39.26,0,0,1,109,868.26Zm-5.15,22.46h3.5l0-25.74h19.85c1.41,0,1.86.5,1.86,2.15,0,7-.05,13.16-.07,20.12-.08,2.25-2.67,1.48-3.91,1.89-.56.18-.76,1.24-.72,1.59l5.23,0c1.24,0,2.66-1.41,2.75-4.06V865.86c0-1.91-1.71-2.87-3.36-2.88l-24-.18-1.14-.38v28.3Zm15.19-22.46h3.14a22.37,22.37,0,0,0,1,6.4,33.17,33.17,0,0,0,1.39-6.57h3.14a60.56,60.56,0,0,1-3.39,10.46,21,21,0,0,0,3.34,5.65v2.13a32.87,32.87,0,0,1-4.53-5.45,28.23,28.23,0,0,1-4.53,5.44v-1.88a52.41,52.41,0,0,0,3.6-5.89A39.65,39.65,0,0,1,119.05,868.26Z" transform="translate(0.2 0)"/>
      <path class="cls-23" d="M171.3,863.39h28.1a1,1,0,0,1,1,1v1H172.32a1,1,0,0,1-1-1v-1Zm4.71,11c-1.21,3.86-2.29,7.23-3.5,11.1-.73,2.13-.19,5.15,3.54,5.15l20.83-.16c1.67,0,4.06-1.06,3.45-4l-1.7-6.32h-3.71l1.77,6c.37,1.69-.41,2.56-1.53,2.56-6.24,0-10.69,0-16.92,0-2.17,0-2.87-1.23-1.86-4.2l3.43-10H201.4v-1a1.06,1.06,0,0,0-1.08-1h-30v1a1.06,1.06,0,0,0,1.08,1Z" transform="translate(0.2 0)"/>
    </g>
  </g>
  <g id="graph_slogan" data-name="graph slogan">
    <path d="M96.12,808.77l.06.06,5.1,4.1.67.52.36-1.7,0,0,0,0L96.48,807Zm7.87-5.83.31-1.44H86.62l-.32,1.44h8.6c-.5,1.08-2.61,5-10.26,8.77l-.35,1.62a28.71,28.71,0,0,0,9.36-6.52l-2.57,11.85h1.43l3.08-14.3a11.8,11.8,0,0,0,.89-1.42Zm38.09,5.16a1.29,1.29,0,0,0-1.25-1.56h-3l2.07-1.74a1.27,1.27,0,0,0-.81-2.24H133.5c.87-.84,1.48-1.46,1.78-1.79h-1.8a40.49,40.49,0,0,1-7,5.51l-.36,1.72a36.74,36.74,0,0,0,5.73-4h6.54a.17.17,0,0,1,.1.29l-2.73,2.29h-6a1.29,1.29,0,0,0-1.25,1l-1.52,7h1.44l1.35-6.34a.34.34,0,0,1,.33-.27h10.14a.32.32,0,0,1,.31.39l-1.34,6.21h1.44ZM142,819l.29-1.54c-1.77-1.17-6.42-3.54-7.78-4.33a7.21,7.21,0,0,0,1-2.47l.41-1.83h-1.44l-.38,1.79v.06c-.35,1.66-2,5.63-9.83,6.7l-.32,1.46c4.19-.55,7.37-2,9.44-4.17l.24-.27C134.88,815.19,140.24,817.85,142,819Zm27.55-12.67a25.71,25.71,0,0,1-3.53,7.1L164.69,812a.16.16,0,0,1-.05-.19c.71-1.43,2-4,2.64-5.69h2.08A.16.16,0,0,1,169.51,806.33Zm1.71-1.26a.34.34,0,0,0-.32-.39h-3.06c.79-2.1,1.36-3.77,1.4-3.91h-1.42c0,.05-.61,1.76-1.44,3.91H164.2l-.73,1.44h2.37c-.71,1.8-2,4.41-2.74,5.83l-.12.22a.35.35,0,0,0,0,.37l2,2.15a9.83,9.83,0,0,1-3.47,2.39l-.34,1.62a12,12,0,0,0,4.68-3l2.27,2.45.52-1.76-1.78-1.92a28.58,28.58,0,0,0,2.37-3.71,21.07,21.07,0,0,0,1.92-5.35Zm10.12-1.28a1.27,1.27,0,0,0-.81-2.25h-7.16l-.31,1.44h6.85a.15.15,0,0,1,.1.26l-3,3.08a.38.38,0,0,0-.1.19l-.67,2.34h-4.41l-.3,1.42h4.41l-1.7,5.9a1.42,1.42,0,0,1-1.58,1H170l-.31,1.43h2.72c2.71-.08,3-1.61,3.22-2.39l1.7-6h3.32l.3-1.42h-3.3l.55-1.82a.11.11,0,0,1,.06-.1Zm26.34.63-1,4.43h-3.64l1-4.57a.32.32,0,0,1,.3-.24h3A.31.31,0,0,1,207.68,804.42Zm-1.26,5.85-1.14,5.23a.32.32,0,0,1-.3.26h-3a.33.33,0,0,1-.3-.4l1.09-5.09Zm2.83-6.52a1,1,0,0,0-.93-1.15h-4.54a.92.92,0,0,0-.93.75L200.1,816a1,1,0,0,0,.93,1.16h4.56a1,1,0,0,0,.93-.75Zm10.61,1.07h-2.48l.87-4.05h-1.44l-.87,4.05-5.59,0-.31,1.44,5.59,0-2.12,9.82A1.41,1.41,0,0,1,212,817.2h-3l-.32,1.43h2.91c2.92,0,3.22-1.79,3.38-2.4l2.13-10h2.51Zm-9,3.29-1.07,1.19,2.21,3.85,1.07-1.22Zm35-.81,1-1.06-2.86-4-1,1.1,2.85,4Zm4.29,1.55,1.62-8.07h-1.42l-1.64,8.07h-8.06l-.32,1.42h5.34a10.62,10.62,0,0,1-1,2.49,9.68,9.68,0,0,1-5.89,4.58l-.32,1.5a11.6,11.6,0,0,0,7.45-5.62,11.29,11.29,0,0,0,1.15-3h3.57l-1.36,6.36c-.24,1.13.28,2,1.42,2H253c1.65,0,3.27-.2,3.78-2.24l.55-2.54h-1.42l-.51,2.29a1.36,1.36,0,0,1-1.51,1.06h-2.56c-.54,0-.66-.2-.58-.65l1.35-6.28h6l.3-1.42Zm3.82-1.43,4.38-4.28-.91-.89-4.38,4.26Z" transform="translate(0.2 0)"/>
  </g>
  <path id="path6" d="M163.25,231.66a14.54,14.54,0,0,0-9-4.27v-.11a13.88,13.88,0,0,0,7.05-5,13.46,13.46,0,0,0,2.56-8.26,11.4,11.4,0,0,0-4.22-9.17c-2.83-2.36-6.61-3.54-11.46-3.54H132.37v55.59h16.19c5.2,0,9.53-1.46,12.93-4.41A14.53,14.53,0,0,0,166.61,241a13.32,13.32,0,0,0-3.36-9.31Zm-24.4-24.37h7.49q10.65,0,10.64,8.09a9.12,9.12,0,0,1-3.07,7.3c-2,1.72-4.81,2.56-8.44,2.56h-6.66v-18Zm17.76,41.09q-3.15,2.69-8.91,2.69h-8.85V231h7.49c9,0,13.39,3.26,13.39,9.85a9.14,9.14,0,0,1-3.12,7.49Z" transform="translate(0.2 0)"/>
  <path id="path8" d="M178.17,208.47a3.91,3.91,0,0,1-2.89-1.18,3.86,3.86,0,0,1-1.18-2.94,4.17,4.17,0,0,1,1.18-3,3.82,3.82,0,0,1,2.89-1.17,4.27,4.27,0,0,1,3,1.17,4.08,4.08,0,0,1,1.22,3,4,4,0,0,1-1.22,2.89,4.42,4.42,0,0,1-3,1.23Z" transform="translate(0.2 0)"/>
  <path id="rect10" d="M174.9,217.61h6.35V257H174.9Z" transform="translate(0.2 0)"/>
  <path id="path3013" d="M224.45,257H218.1V234.66c0-8.44-2.83-12.64-9-12.64a9.89,9.89,0,0,0-7.9,3.6,13.36,13.36,0,0,0-3.13,9V257h-6.34v-39.4h6.34v6.46h.14c3-5,7.3-7.39,12.79-7.39,4.36,0,7.68,1.42,9.95,4.22s3.45,6.86,3.45,12.17Z" transform="translate(0.2 0)"/>
  <path id="path13" d="M262.68,217.61v5.5h-.14c-2.61-4.3-6.26-6.45-11.6-6.45q-8.46,0-13.31,6c-3.27,4-4.87,9.33-4.87,16.09,0,6,1.52,10.7,4.49,14.22s7,5,11.92,5c6.07,0,10.32-2.45,13.35-7.54h.13v4.31c0,10.37-4.87,15.48-14.67,15.48a21.08,21.08,0,0,1-10.89-2.88l-1.66,5.44a27.12,27.12,0,0,0,12.63,2.75q21,0,20.94-21.86v-36Zm0,21.46a14.35,14.35,0,0,1-3.35,9.75,10.61,10.61,0,0,1-8.52,3.78,10.33,10.33,0,0,1-8.46-4c-2.13-2.64-3.24-5.87-3.24-10.29,0-5.17,1.09-9.15,3.32-12a11.11,11.11,0,0,1,9.23-4.28,10.22,10.22,0,0,1,7.76,3.35,11.48,11.48,0,0,1,3.21,8.09V239l.05,0Z" transform="translate(0.2 0)"/>
  <path class="cls-24" d="M29.87,215.36c0,.11,0,.23,0,.35a3.52,3.52,0,0,0,.27,1.34l.16.31.59,1.53,3.11,8,2.72,6.93a6.87,6.87,0,0,0,3.51,3.08l.47.17h.07l7.44,2.56h0l2.84,1,.19.07h0a10.08,10.08,0,0,1,1.63.55,11.06,11.06,0,0,1,3.26,2.19,10.48,10.48,0,0,1,1,1.16,10.16,10.16,0,0,1,.75,1.1,11,11,0,0,1,1.56,5.65c0,.37,0,.73,0,1.08a3.55,3.55,0,0,1-.06.47h0l-.08.5c0,.15-.06.32-.1.47l0,.06c0,.16-.07.32-.12.47a3.36,3.36,0,0,1-.14.45,3.8,3.8,0,0,1-.18.47,3.85,3.85,0,0,1-.19.47,9.53,9.53,0,0,1-.71,1.34,11.39,11.39,0,0,1-1.18,1.58,24.37,24.37,0,0,0,6.39-14,23.63,23.63,0,0,0,.15-2.67c0-.57,0-1.14-.07-1.72a24.34,24.34,0,0,0-7.83-16.28,23.74,23.74,0,0,0-4-3l-2.74-1.39-13.88-7.12a3.48,3.48,0,0,0-4.8,2.84Z" transform="translate(0.2 0)"/>
  <path class="cls-25" d="M29.87,215.36c0,.11,0,.23,0,.35a3.52,3.52,0,0,0,.27,1.34l.16.31.59,1.53,3.11,8,2.72,6.93a6.87,6.87,0,0,0,3.51,3.08l.47.17h.07l7.44,2.56h0l2.84,1,.19.07h0a10.08,10.08,0,0,1,1.63.55,11.06,11.06,0,0,1,3.26,2.19,10.48,10.48,0,0,1,1,1.16,10.16,10.16,0,0,1,.75,1.1,11,11,0,0,1,1.56,5.65c0,.37,0,.73,0,1.08a3.55,3.55,0,0,1-.06.47h0l-.08.5c0,.15-.06.32-.1.47l0,.06c0,.16-.07.32-.12.47a3.36,3.36,0,0,1-.14.45,3.8,3.8,0,0,1-.18.47,3.85,3.85,0,0,1-.19.47,9.53,9.53,0,0,1-.71,1.34,11.39,11.39,0,0,1-1.18,1.58,24.37,24.37,0,0,0,6.39-14,23.63,23.63,0,0,0,.15-2.67c0-.57,0-1.14-.07-1.72a24.34,24.34,0,0,0-7.83-16.28,23.74,23.74,0,0,0-4-3l-2.74-1.39-13.88-7.12a3.48,3.48,0,0,0-4.8,2.84Z" transform="translate(0.2 0)"/>
  <path class="cls-24" d="M5.19,184a3.63,3.63,0,0,0-3.56,3.63v63.2q0,.66.06,1.32c0,.23.06.47.1.7a10.83,10.83,0,0,0,15.8,7.62l0,0,.55-.33,2.24-1.31,2.84-1.68V201a10.84,10.84,0,0,0-4.72-9l-.19-.13L7.28,184.62a3.76,3.76,0,0,0-2-.61H5.19Z" transform="translate(0.2 0)"/>
  <path class="cls-26" d="M5.19,184a3.63,3.63,0,0,0-3.56,3.63v63.2q0,.66.06,1.32c0,.23.06.47.1.7a10.83,10.83,0,0,0,15.8,7.62l0,0,.55-.33,2.24-1.31,2.84-1.68V201a10.84,10.84,0,0,0-4.72-9l-.19-.13L7.28,184.62a3.76,3.76,0,0,0-2-.61H5.19Z" transform="translate(0.2 0)"/>
  <path class="cls-24" d="M49.07,241.74,23.62,256.82l-.37.22v.09l-2.84,1.68-2.24,1.32-.55.33,0,0a10.64,10.64,0,0,1-5.15,1.3,10.81,10.81,0,0,1-10.65-8.92A24.12,24.12,0,0,0,5.38,263a24.43,24.43,0,0,0,18.26,11.27h4.7c4.16-.43,7.63-2.1,11.28-4.35l5.61-3.43c2.53-1.62,9.39-5.6,11.41-7.84a10.07,10.07,0,0,0,1.18-1.57,9.53,9.53,0,0,0,.71-1.34l.19-.47c.06-.16.11-.31.18-.48s.19-.61.26-.92.09-.36.12-.54a11.4,11.4,0,0,0,.2-2.05,11,11,0,0,0-1.56-5.65,10.25,10.25,0,0,0-.76-1.1,8.87,8.87,0,0,0-1-1.16,11,11,0,0,0-3.26-2.19,10.11,10.11,0,0,0-1.63-.56h0l-.17-.08Z" transform="translate(0.2 0)"/>
  <path class="cls-27" d="M49.07,241.74,23.62,256.82l-.37.22v.09l-2.84,1.68-2.24,1.32-.55.33,0,0a10.64,10.64,0,0,1-5.15,1.3,10.81,10.81,0,0,1-10.65-8.92A24.12,24.12,0,0,0,5.38,263a24.43,24.43,0,0,0,18.26,11.27h4.7c4.16-.43,7.63-2.1,11.28-4.35l5.61-3.43c2.53-1.62,9.39-5.6,11.41-7.84a10.07,10.07,0,0,0,1.18-1.57,9.53,9.53,0,0,0,.71-1.34l.19-.47c.06-.16.11-.31.18-.48s.19-.61.26-.92.09-.36.12-.54a11.4,11.4,0,0,0,.2-2.05,11,11,0,0,0-1.56-5.65,10.25,10.25,0,0,0-.76-1.1,8.87,8.87,0,0,0-1-1.16,11,11,0,0,0-3.26-2.19,10.11,10.11,0,0,0-1.63-.56h0l-.17-.08Z" transform="translate(0.2 0)"/>
  <path class="cls-28" d="M59.49,251.3a10.84,10.84,0,0,1-.19,2.07c0,.17-.07.34-.12.53s-.16.62-.26.92-.11.32-.18.47l-.19.47a10.11,10.11,0,0,1-.71,1.34,11.39,11.39,0,0,1-1.18,1.58c-2,2.23-8.89,6.21-11.41,7.84L39.64,270c-4.12,2.53-8,4.32-12.9,4.44h-.69l-.95,0A24.45,24.45,0,0,1,5.39,263a24.07,24.07,0,0,1-3.6-10.18,10.83,10.83,0,0,0,10.65,8.93,10.65,10.65,0,0,0,5.15-1.31h0l.55-.34,2.24-1.32,2.84-1.68V257l.37-.22,25.45-15.08,2-1.14.19.07h0a10.08,10.08,0,0,1,1.63.55,11.12,11.12,0,0,1,3.26,2.19,10.38,10.38,0,0,1,1,1.16,8.9,8.9,0,0,1,.75,1.1,10.9,10.9,0,0,1,1.56,5.64Z" transform="translate(0.2 0)"/>
  <path class="cls-29" d="M59.49,251.3a10.84,10.84,0,0,1-.19,2.07c0,.17-.07.34-.12.53s-.16.62-.26.92-.11.32-.18.47l-.19.47a10.11,10.11,0,0,1-.71,1.34,11.39,11.39,0,0,1-1.18,1.58c-2,2.23-8.89,6.21-11.41,7.84L39.64,270c-4.12,2.53-8,4.32-12.9,4.44h-.69l-.95,0A24.45,24.45,0,0,1,5.39,263a24.07,24.07,0,0,1-3.6-10.18,10.83,10.83,0,0,0,10.65,8.93,10.65,10.65,0,0,0,5.15-1.31h0l.55-.34,2.24-1.32,2.84-1.68V257l.37-.22,25.45-15.08,2-1.14.19.07h0a10.08,10.08,0,0,1,1.63.55,11.12,11.12,0,0,1,3.26,2.19,10.38,10.38,0,0,1,1,1.16,8.9,8.9,0,0,1,.75,1.1,10.9,10.9,0,0,1,1.56,5.64Z" transform="translate(0.2 0)"/>
  <g>
    <path class="cls-30" d="M193.4,509.8h-4.55v-1.64h11.07v1.64h-4.57v13.31H193.4Z" transform="translate(0.2 0)"/>
    <path class="cls-30" d="M200.52,515.72c0-1.26,0-2.35-.09-3.35h1.71l.07,2.11h.09a3.22,3.22,0,0,1,3-2.35,2.26,2.26,0,0,1,.55.06V514a3.16,3.16,0,0,0-.66-.06,2.74,2.74,0,0,0-2.62,2.51,5.82,5.82,0,0,0-.09.9v5.73h-1.93Z" transform="translate(0.2 0)"/>
    <path class="cls-30" d="M213.61,523.11l-.15-1.35h-.07a4,4,0,0,1-3.28,1.59,3.06,3.06,0,0,1-3.29-3.08c0-2.6,2.31-4,6.46-4v-.23a2.22,2.22,0,0,0-2.44-2.48,5.36,5.36,0,0,0-2.8.8l-.44-1.29a6.63,6.63,0,0,1,3.53-1c3.28,0,4.08,2.24,4.08,4.39v4a14.39,14.39,0,0,0,.18,2.57Zm-.29-5.48c-2.13,0-4.55.33-4.55,2.42a1.73,1.73,0,0,0,1.85,1.86,2.67,2.67,0,0,0,2.59-1.8,1.93,1.93,0,0,0,.11-.62Z" transform="translate(0.2 0)"/>
    <path class="cls-30" d="M218.36,515.28c0-1.11,0-2-.09-2.91H220l.11,1.78h0a3.94,3.94,0,0,1,3.55-2c1.48,0,3.79.88,3.79,4.57v6.41h-1.95v-6.19c0-1.73-.65-3.17-2.49-3.17a2.79,2.79,0,0,0-2.62,2,3.12,3.12,0,0,0-.13.91v6.46h-1.95Z" transform="translate(0.2 0)"/>
    <path class="cls-30" d="M230.4,521.11a5.11,5.11,0,0,0,2.58.78c1.42,0,2.08-.71,2.08-1.6s-.55-1.44-2-2c-1.93-.69-2.84-1.76-2.84-3,0-1.73,1.39-3.15,3.7-3.15a5.41,5.41,0,0,1,2.64.66l-.49,1.42a4.2,4.2,0,0,0-2.19-.62c-1.16,0-1.8.67-1.8,1.47s.64,1.28,2,1.81c1.87.71,2.82,1.65,2.82,3.24,0,1.89-1.47,3.22-4,3.22a6.14,6.14,0,0,1-3-.73Z" transform="translate(0.2 0)"/>
    <path class="cls-30" d="M239.46,507.36h1.95v15.75h-1.95Z" transform="translate(0.2 0)"/>
    <path class="cls-30" d="M250.64,523.11l-.16-1.35h-.06a4,4,0,0,1-3.29,1.59,3.06,3.06,0,0,1-3.28-3.08c0-2.6,2.31-4,6.45-4v-.23a2.21,2.21,0,0,0-2.44-2.48,5.33,5.33,0,0,0-2.79.8l-.45-1.29a6.66,6.66,0,0,1,3.53-1c3.29,0,4.08,2.24,4.08,4.39v4a15.38,15.38,0,0,0,.18,2.57Zm-.29-5.48c-2.13,0-4.55.33-4.55,2.42a1.73,1.73,0,0,0,1.84,1.86,2.68,2.68,0,0,0,2.6-1.8,2.25,2.25,0,0,0,.11-.62Z" transform="translate(0.2 0)"/>
    <path class="cls-30" d="M257.65,509.29v3.08h2.79v1.49h-2.79v5.79c0,1.33.37,2.08,1.46,2.08a4.19,4.19,0,0,0,1.13-.13l.09,1.46a4.65,4.65,0,0,1-1.73.27,2.72,2.72,0,0,1-2.11-.82,4,4,0,0,1-.75-2.8v-5.85h-1.66v-1.49h1.66V509.8Z" transform="translate(0.2 0)"/>
    <path class="cls-30" d="M263.59,518.09a3.45,3.45,0,0,0,3.69,3.73,7.08,7.08,0,0,0,3-.55l.33,1.4a8.72,8.72,0,0,1-3.57.66c-3.31,0-5.28-2.17-5.28-5.41s1.91-5.79,5-5.79c3.51,0,4.44,3.08,4.44,5.06a7.94,7.94,0,0,1-.06.9Zm5.73-1.39c0-1.25-.51-3.18-2.71-3.18-2,0-2.84,1.82-3,3.18Z" transform="translate(0.2 0)"/>
  </g>
</svg>
